solid CATIA STL
  facet normal  0.000000e+000  0.000000e+000 -1.000000e+000
    outer loop
      vertex  2.092795e+001 -5.500000e+000 -2.000000e-001
      vertex  2.092795e+001 -1.350000e+001 -2.000000e-001
      vertex  9.847991e+000 -5.500000e+000 -2.000000e-001
    endloop
  endfacet
  facet normal  0.000000e+000  0.000000e+000 -1.000000e+000
    outer loop
      vertex  9.847991e+000 -5.500000e+000 -2.000000e-001
      vertex  2.092795e+001 -1.350000e+001 -2.000000e-001
      vertex  9.847991e+000 -1.350000e+001 -2.000000e-001
    endloop
  endfacet
  facet normal  0.000000e+000  0.000000e+000  1.000000e+000
    outer loop
      vertex  9.847991e+000 -5.500000e+000  5.800000e+000
      vertex  9.847991e+000 -1.350000e+001  5.800000e+000
      vertex  2.092795e+001 -5.500000e+000  5.800000e+000
    endloop
  endfacet
  facet normal  0.000000e+000  0.000000e+000  1.000000e+000
    outer loop
      vertex  2.092795e+001 -5.500000e+000  5.800000e+000
      vertex  9.847991e+000 -1.350000e+001  5.800000e+000
      vertex  2.092795e+001 -1.350000e+001  5.800000e+000
    endloop
  endfacet
  facet normal  0.000000e+000  0.000000e+000 -1.000000e+000
    outer loop
      vertex -9.847991e+000 -5.500000e+000 -2.000000e-001
      vertex -9.847991e+000 -1.350000e+001 -2.000000e-001
      vertex -2.092795e+001 -5.500000e+000 -2.000000e-001
    endloop
  endfacet
  facet normal  0.000000e+000  0.000000e+000 -1.000000e+000
    outer loop
      vertex -2.092795e+001 -5.500000e+000 -2.000000e-001
      vertex -9.847991e+000 -1.350000e+001 -2.000000e-001
      vertex -2.092795e+001 -1.350000e+001 -2.000000e-001
    endloop
  endfacet
  facet normal  0.000000e+000  0.000000e+000  1.000000e+000
    outer loop
      vertex -2.092795e+001 -5.500000e+000  5.800000e+000
      vertex -2.092795e+001 -1.350000e+001  5.800000e+000
      vertex -9.847991e+000 -5.500000e+000  5.800000e+000
    endloop
  endfacet
  facet normal  0.000000e+000  0.000000e+000  1.000000e+000
    outer loop
      vertex -9.847991e+000 -5.500000e+000  5.800000e+000
      vertex -2.092795e+001 -1.350000e+001  5.800000e+000
      vertex -9.847991e+000 -1.350000e+001  5.800000e+000
    endloop
  endfacet
  facet normal  1.000000e+000  0.000000e+000  -0.000000e+000
    outer loop
      vertex -9.847991e+000 -1.350000e+001  5.800000e+000
      vertex -9.847991e+000 -5.500000e+000  3.800000e+000
      vertex -9.847991e+000 -5.500000e+000  5.800000e+000
    endloop
  endfacet
  facet normal  1.000000e+000  0.000000e+000  0.000000e+000
    outer loop
      vertex -9.847991e+000 -5.500000e+000  3.800000e+000
      vertex -9.847991e+000 -1.350000e+001  5.800000e+000
      vertex -9.847991e+000 -1.050000e+001  3.800000e+000
    endloop
  endfacet
  facet normal  1.000000e+000  0.000000e+000  0.000000e+000
    outer loop
      vertex -9.847991e+000 -1.050000e+001  3.800000e+000
      vertex -9.847991e+000 -1.350000e+001  5.800000e+000
      vertex -9.847991e+000 -1.350000e+001 -2.000000e-001
    endloop
  endfacet
  facet normal  1.000000e+000  0.000000e+000  0.000000e+000
    outer loop
      vertex -9.847991e+000 -1.050000e+001  3.800000e+000
      vertex -9.847991e+000 -1.350000e+001 -2.000000e-001
      vertex -9.847991e+000 -1.050000e+001  1.800000e+000
    endloop
  endfacet
  facet normal  1.000000e+000  0.000000e+000  0.000000e+000
    outer loop
      vertex -9.847991e+000 -1.050000e+001  1.800000e+000
      vertex -9.847991e+000 -1.350000e+001 -2.000000e-001
      vertex -9.847991e+000 -5.500000e+000 -2.000000e-001
    endloop
  endfacet
  facet normal  1.000000e+000  0.000000e+000  -0.000000e+000
    outer loop
      vertex -9.847991e+000 -1.050000e+001  1.800000e+000
      vertex -9.847991e+000 -5.500000e+000 -2.000000e-001
      vertex -9.847991e+000 -5.500000e+000  1.800000e+000
    endloop
  endfacet
  facet normal -1.000000e+000  0.000000e+000  -0.000000e+000
    outer loop
      vertex -2.092795e+001 -1.350000e+001 -2.000000e-001
      vertex -2.092795e+001 -5.500000e+000  1.800000e+000
      vertex -2.092795e+001 -5.500000e+000 -2.000000e-001
    endloop
  endfacet
  facet normal -1.000000e+000  0.000000e+000  0.000000e+000
    outer loop
      vertex -2.092795e+001 -5.500000e+000  1.800000e+000
      vertex -2.092795e+001 -1.350000e+001 -2.000000e-001
      vertex -2.092795e+001 -1.050000e+001  1.800000e+000
    endloop
  endfacet
  facet normal -1.000000e+000  -0.000000e+000  0.000000e+000
    outer loop
      vertex -2.092795e+001 -1.050000e+001  1.800000e+000
      vertex -2.092795e+001 -1.350000e+001 -2.000000e-001
      vertex -2.092795e+001 -1.350000e+001  5.800000e+000
    endloop
  endfacet
  facet normal -9.999999e-001  0.000000e+000  0.000000e+000
    outer loop
      vertex -2.092795e+001 -1.050000e+001  1.800000e+000
      vertex -2.092795e+001 -1.350000e+001  5.800000e+000
      vertex -2.092795e+001 -1.050000e+001  3.800000e+000
    endloop
  endfacet
  facet normal -1.000000e+000  0.000000e+000  0.000000e+000
    outer loop
      vertex -2.092795e+001 -1.050000e+001  3.800000e+000
      vertex -2.092795e+001 -1.350000e+001  5.800000e+000
      vertex -2.092795e+001 -5.500000e+000  5.800000e+000
    endloop
  endfacet
  facet normal -1.000000e+000  0.000000e+000  -0.000000e+000
    outer loop
      vertex -2.092795e+001 -1.050000e+001  3.800000e+000
      vertex -2.092795e+001 -5.500000e+000  5.800000e+000
      vertex -2.092795e+001 -5.500000e+000  3.800000e+000
    endloop
  endfacet
  facet normal  1.000000e+000  0.000000e+000  0.000000e+000
    outer loop
      vertex  2.092795e+001 -5.500000e+000 -2.000000e-001
      vertex  2.092795e+001 -5.500000e+000  1.800000e+000
      vertex  2.092795e+001 -1.350000e+001 -2.000000e-001
    endloop
  endfacet
  facet normal  1.000000e+000  0.000000e+000  0.000000e+000
    outer loop
      vertex  2.092795e+001 -1.350000e+001 -2.000000e-001
      vertex  2.092795e+001 -5.500000e+000  1.800000e+000
      vertex  2.092795e+001 -1.050000e+001  1.800000e+000
    endloop
  endfacet
  facet normal  1.000000e+000  0.000000e+000  0.000000e+000
    outer loop
      vertex  2.092795e+001 -1.350000e+001 -2.000000e-001
      vertex  2.092795e+001 -1.050000e+001  1.800000e+000
      vertex  2.092795e+001 -1.350000e+001  5.800000e+000
    endloop
  endfacet
  facet normal  9.999999e-001  0.000000e+000  0.000000e+000
    outer loop
      vertex  2.092795e+001 -1.350000e+001  5.800000e+000
      vertex  2.092795e+001 -1.050000e+001  1.800000e+000
      vertex  2.092795e+001 -1.050000e+001  3.800000e+000
    endloop
  endfacet
  facet normal  1.000000e+000  0.000000e+000  -0.000000e+000
    outer loop
      vertex  2.092795e+001 -1.350000e+001  5.800000e+000
      vertex  2.092795e+001 -1.050000e+001  3.800000e+000
      vertex  2.092795e+001 -5.500000e+000  5.800000e+000
    endloop
  endfacet
  facet normal  1.000000e+000  0.000000e+000  0.000000e+000
    outer loop
      vertex  2.092795e+001 -5.500000e+000  5.800000e+000
      vertex  2.092795e+001 -1.050000e+001  3.800000e+000
      vertex  2.092795e+001 -5.500000e+000  3.800000e+000
    endloop
  endfacet
  facet normal -1.000000e+000  0.000000e+000  0.000000e+000
    outer loop
      vertex  9.847991e+000 -5.500000e+000  5.800000e+000
      vertex  9.847991e+000 -5.500000e+000  3.800000e+000
      vertex  9.847991e+000 -1.350000e+001  5.800000e+000
    endloop
  endfacet
  facet normal -1.000000e+000  0.000000e+000  0.000000e+000
    outer loop
      vertex  9.847991e+000 -1.350000e+001  5.800000e+000
      vertex  9.847991e+000 -5.500000e+000  3.800000e+000
      vertex  9.847991e+000 -1.050000e+001  3.800000e+000
    endloop
  endfacet
  facet normal -1.000000e+000  -0.000000e+000  0.000000e+000
    outer loop
      vertex  9.847991e+000 -1.350000e+001  5.800000e+000
      vertex  9.847991e+000 -1.050000e+001  3.800000e+000
      vertex  9.847991e+000 -1.350000e+001 -2.000000e-001
    endloop
  endfacet
  facet normal -1.000000e+000  0.000000e+000  0.000000e+000
    outer loop
      vertex  9.847991e+000 -1.350000e+001 -2.000000e-001
      vertex  9.847991e+000 -1.050000e+001  3.800000e+000
      vertex  9.847991e+000 -1.050000e+001  1.800000e+000
    endloop
  endfacet
  facet normal -1.000000e+000  0.000000e+000  -0.000000e+000
    outer loop
      vertex  9.847991e+000 -1.350000e+001 -2.000000e-001
      vertex  9.847991e+000 -1.050000e+001  1.800000e+000
      vertex  9.847991e+000 -5.500000e+000 -2.000000e-001
    endloop
  endfacet
  facet normal -1.000000e+000  0.000000e+000  0.000000e+000
    outer loop
      vertex  9.847991e+000 -5.500000e+000 -2.000000e-001
      vertex  9.847991e+000 -1.050000e+001  1.800000e+000
      vertex  9.847991e+000 -5.500000e+000  1.800000e+000
    endloop
  endfacet
  facet normal  0.000000e+000  1.000000e+000  0.000000e+000
    outer loop
      vertex  2.092795e+001 -1.050000e+001  1.800000e+000
      vertex  9.847991e+000 -1.050000e+001  1.800000e+000
      vertex  2.092795e+001 -1.050000e+001  3.800000e+000
    endloop
  endfacet
  facet normal  0.000000e+000  1.000000e+000  0.000000e+000
    outer loop
      vertex  2.092795e+001 -1.050000e+001  3.800000e+000
      vertex  9.847991e+000 -1.050000e+001  1.800000e+000
      vertex  9.847991e+000 -1.050000e+001  3.800000e+000
    endloop
  endfacet
  facet normal  0.000000e+000  1.000000e+000  0.000000e+000
    outer loop
      vertex -9.847991e+000 -1.050000e+001  1.800000e+000
      vertex -2.092795e+001 -1.050000e+001  1.800000e+000
      vertex -9.847991e+000 -1.050000e+001  3.800000e+000
    endloop
  endfacet
  facet normal  0.000000e+000  1.000000e+000  0.000000e+000
    outer loop
      vertex -9.847991e+000 -1.050000e+001  3.800000e+000
      vertex -2.092795e+001 -1.050000e+001  1.800000e+000
      vertex -2.092795e+001 -1.050000e+001  3.800000e+000
    endloop
  endfacet
  facet normal  0.000000e+000  1.000000e+000  0.000000e+000
    outer loop
      vertex -2.092795e+001 -1.350000e+001 -2.000000e-001
      vertex -9.847991e+000 -1.350000e+001 -2.000000e-001
      vertex -1.998269e+001 -1.350000e+001 -1.289840e+000
    endloop
  endfacet
  facet normal  0.000000e+000  1.000000e+000  0.000000e+000
    outer loop
      vertex -2.388001e+001 -1.350000e+001  8.123722e+000
      vertex  2.323842e+001 -1.350000e+001  8.123722e+000
      vertex  2.092795e+001 -1.350000e+001  5.800000e+000
    endloop
  endfacet
  facet normal  0.000000e+000  1.000000e+000  0.000000e+000
    outer loop
      vertex -2.388001e+001 -1.350000e+001  8.123722e+000
      vertex  2.092795e+001 -1.350000e+001  5.800000e+000
      vertex  9.847991e+000 -1.350000e+001  5.800000e+000
    endloop
  endfacet
  facet normal  0.000000e+000  1.000000e+000  0.000000e+000
    outer loop
      vertex -2.388001e+001 -1.350000e+001  8.123722e+000
      vertex  9.847991e+000 -1.350000e+001  5.800000e+000
      vertex -9.847991e+000 -1.350000e+001  5.800000e+000
    endloop
  endfacet
  facet normal  0.000000e+000  1.000000e+000  0.000000e+000
    outer loop
      vertex -2.388001e+001 -1.350000e+001  8.123722e+000
      vertex -9.847991e+000 -1.350000e+001  5.800000e+000
      vertex -2.092795e+001 -1.350000e+001  5.800000e+000
    endloop
  endfacet
  facet normal  0.000000e+000  1.000000e+000  0.000000e+000
    outer loop
      vertex  1.902566e+001 -1.350000e+001 -1.289840e+000
      vertex -1.998269e+001 -1.350000e+001 -1.289840e+000
      vertex  9.847991e+000 -1.350000e+001 -2.000000e-001
    endloop
  endfacet
  facet normal  -0.000000e+000  1.000000e+000  0.000000e+000
    outer loop
      vertex  1.902566e+001 -1.350000e+001 -1.289840e+000
      vertex  9.847991e+000 -1.350000e+001 -2.000000e-001
      vertex  2.092795e+001 -1.350000e+001 -2.000000e-001
    endloop
  endfacet
  facet normal  0.000000e+000  1.000000e+000  0.000000e+000
    outer loop
      vertex  1.902566e+001 -1.350000e+001 -1.289840e+000
      vertex  2.092795e+001 -1.350000e+001 -2.000000e-001
      vertex  2.323842e+001 -1.350000e+001 -2.327605e+001
    endloop
  endfacet
  facet normal  0.000000e+000  1.000000e+000  0.000000e+000
    outer loop
      vertex  1.902566e+001 -1.350000e+001 -1.289840e+000
      vertex  2.323842e+001 -1.350000e+001 -2.327605e+001
      vertex  1.902566e+001 -1.350000e+001 -2.327605e+001
    endloop
  endfacet
  facet normal  0.000000e+000  1.000000e+000  0.000000e+000
    outer loop
      vertex -2.388001e+001 -1.350000e+001 -2.327605e+001
      vertex -2.388001e+001 -1.350000e+001  8.123722e+000
      vertex -2.092795e+001 -1.350000e+001  5.800000e+000
    endloop
  endfacet
  facet normal  0.000000e+000  1.000000e+000  0.000000e+000
    outer loop
      vertex -2.388001e+001 -1.350000e+001 -2.327605e+001
      vertex -2.092795e+001 -1.350000e+001  5.800000e+000
      vertex -2.092795e+001 -1.350000e+001 -2.000000e-001
    endloop
  endfacet
  facet normal  0.000000e+000  1.000000e+000  0.000000e+000
    outer loop
      vertex -2.388001e+001 -1.350000e+001 -2.327605e+001
      vertex -2.092795e+001 -1.350000e+001 -2.000000e-001
      vertex -1.998269e+001 -1.350000e+001 -1.289840e+000
    endloop
  endfacet
  facet normal  0.000000e+000  1.000000e+000  0.000000e+000
    outer loop
      vertex -2.388001e+001 -1.350000e+001 -2.327605e+001
      vertex -1.998269e+001 -1.350000e+001 -1.289840e+000
      vertex -1.998269e+001 -1.350000e+001 -2.327605e+001
    endloop
  endfacet
  facet normal  -0.000000e+000  1.000000e+000  0.000000e+000
    outer loop
      vertex -1.998269e+001 -1.350000e+001 -1.289840e+000
      vertex -9.847991e+000 -1.350000e+001 -2.000000e-001
      vertex  9.847991e+000 -1.350000e+001 -2.000000e-001
    endloop
  endfacet
  facet normal  0.000000e+000  1.000000e+000  0.000000e+000
    outer loop
      vertex  9.847991e+000 -1.350000e+001 -2.000000e-001
      vertex -9.847991e+000 -1.350000e+001 -2.000000e-001
      vertex -9.847991e+000 -1.350000e+001  5.800000e+000
    endloop
  endfacet
  facet normal  -0.000000e+000  1.000000e+000  0.000000e+000
    outer loop
      vertex  9.847991e+000 -1.350000e+001 -2.000000e-001
      vertex -9.847991e+000 -1.350000e+001  5.800000e+000
      vertex  9.847991e+000 -1.350000e+001  5.800000e+000
    endloop
  endfacet
  facet normal  0.000000e+000  9.999999e-001  0.000000e+000
    outer loop
      vertex  2.092795e+001 -1.350000e+001 -2.000000e-001
      vertex  2.092795e+001 -1.350000e+001  5.800000e+000
      vertex  2.323842e+001 -1.350000e+001 -2.327605e+001
    endloop
  endfacet
  facet normal  0.000000e+000  1.000000e+000  -0.000000e+000
    outer loop
      vertex  2.323842e+001 -1.350000e+001 -2.327605e+001
      vertex  2.092795e+001 -1.350000e+001  5.800000e+000
      vertex  2.323842e+001 -1.350000e+001  8.123722e+000
    endloop
  endfacet
  facet normal  -0.000000e+000  0.000000e+000  1.000000e+000
    outer loop
      vertex  2.092795e+001 -5.500000e+000  1.800000e+000
      vertex  9.847991e+000 -5.500000e+000  1.800000e+000
      vertex  2.092795e+001 -1.050000e+001  1.800000e+000
    endloop
  endfacet
  facet normal  0.000000e+000  0.000000e+000  1.000000e+000
    outer loop
      vertex  2.092795e+001 -1.050000e+001  1.800000e+000
      vertex  9.847991e+000 -5.500000e+000  1.800000e+000
      vertex  9.847991e+000 -1.050000e+001  1.800000e+000
    endloop
  endfacet
  facet normal  -0.000000e+000  0.000000e+000 -1.000000e+000
    outer loop
      vertex  9.847991e+000 -5.500000e+000  3.800000e+000
      vertex  2.092795e+001 -5.500000e+000  3.800000e+000
      vertex  9.847991e+000 -1.050000e+001  3.800000e+000
    endloop
  endfacet
  facet normal  0.000000e+000  0.000000e+000 -1.000000e+000
    outer loop
      vertex  9.847991e+000 -1.050000e+001  3.800000e+000
      vertex  2.092795e+001 -5.500000e+000  3.800000e+000
      vertex  2.092795e+001 -1.050000e+001  3.800000e+000
    endloop
  endfacet
  facet normal  -0.000000e+000  0.000000e+000  1.000000e+000
    outer loop
      vertex -9.847991e+000 -5.500000e+000  1.800000e+000
      vertex -2.092795e+001 -5.500000e+000  1.800000e+000
      vertex -9.847991e+000 -1.050000e+001  1.800000e+000
    endloop
  endfacet
  facet normal  0.000000e+000  0.000000e+000  1.000000e+000
    outer loop
      vertex -9.847991e+000 -1.050000e+001  1.800000e+000
      vertex -2.092795e+001 -5.500000e+000  1.800000e+000
      vertex -2.092795e+001 -1.050000e+001  1.800000e+000
    endloop
  endfacet
  facet normal  -0.000000e+000  0.000000e+000 -1.000000e+000
    outer loop
      vertex -2.092795e+001 -5.500000e+000  3.800000e+000
      vertex -9.847991e+000 -5.500000e+000  3.800000e+000
      vertex -2.092795e+001 -1.050000e+001  3.800000e+000
    endloop
  endfacet
  facet normal  0.000000e+000  0.000000e+000 -1.000000e+000
    outer loop
      vertex -2.092795e+001 -1.050000e+001  3.800000e+000
      vertex -9.847991e+000 -5.500000e+000  3.800000e+000
      vertex -9.847991e+000 -1.050000e+001  3.800000e+000
    endloop
  endfacet
  facet normal  0.000000e+000 -1.000000e+000  0.000000e+000
    outer loop
      vertex  1.902566e+001 -1.550000e+001 -2.327605e+001
      vertex  2.323842e+001 -1.550000e+001 -2.327605e+001
      vertex  1.902566e+001 -1.550000e+001 -1.289840e+000
    endloop
  endfacet
  facet normal  0.000000e+000 -1.000000e+000  0.000000e+000
    outer loop
      vertex  1.902566e+001 -1.550000e+001 -1.289840e+000
      vertex  2.323842e+001 -1.550000e+001 -2.327605e+001
      vertex  2.323842e+001 -1.550000e+001  8.123722e+000
    endloop
  endfacet
  facet normal  0.000000e+000 -1.000000e+000  0.000000e+000
    outer loop
      vertex  1.902566e+001 -1.550000e+001 -1.289840e+000
      vertex  2.323842e+001 -1.550000e+001  8.123722e+000
      vertex -1.998269e+001 -1.550000e+001 -1.289840e+000
    endloop
  endfacet
  facet normal  0.000000e+000 -1.000000e+000  0.000000e+000
    outer loop
      vertex -1.998269e+001 -1.550000e+001 -1.289840e+000
      vertex  2.323842e+001 -1.550000e+001  8.123722e+000
      vertex -2.388001e+001 -1.550000e+001  8.123722e+000
    endloop
  endfacet
  facet normal  0.000000e+000 -1.000000e+000  0.000000e+000
    outer loop
      vertex -1.998269e+001 -1.550000e+001 -1.289840e+000
      vertex -2.388001e+001 -1.550000e+001  8.123722e+000
      vertex -1.998269e+001 -1.550000e+001 -2.327605e+001
    endloop
  endfacet
  facet normal  0.000000e+000 -1.000000e+000  0.000000e+000
    outer loop
      vertex -1.998269e+001 -1.550000e+001 -2.327605e+001
      vertex -2.388001e+001 -1.550000e+001  8.123722e+000
      vertex -2.388001e+001 -1.550000e+001 -2.327605e+001
    endloop
  endfacet
  facet normal  0.000000e+000  0.000000e+000  9.999999e-001
    outer loop
      vertex -2.388001e+001 -1.550000e+001  8.123722e+000
      vertex  2.323842e+001 -1.550000e+001  8.123722e+000
      vertex -2.388001e+001 -1.350000e+001  8.123722e+000
    endloop
  endfacet
  facet normal  -0.000000e+000  0.000000e+000  9.999999e-001
    outer loop
      vertex -2.388001e+001 -1.350000e+001  8.123722e+000
      vertex  2.323842e+001 -1.550000e+001  8.123722e+000
      vertex  2.323842e+001 -1.350000e+001  8.123722e+000
    endloop
  endfacet
  facet normal  1.000000e+000  0.000000e+000  0.000000e+000
    outer loop
      vertex  2.323842e+001 -1.550000e+001 -2.327605e+001
      vertex  2.323842e+001 -1.350000e+001 -2.327605e+001
      vertex  2.323842e+001 -1.550000e+001  8.123722e+000
    endloop
  endfacet
  facet normal  1.000000e+000  -0.000000e+000  0.000000e+000
    outer loop
      vertex  2.323842e+001 -1.550000e+001  8.123722e+000
      vertex  2.323842e+001 -1.350000e+001 -2.327605e+001
      vertex  2.323842e+001 -1.350000e+001  8.123722e+000
    endloop
  endfacet
  facet normal  0.000000e+000  0.000000e+000 -1.000000e+000
    outer loop
      vertex  2.323842e+001 -1.550000e+001 -2.327605e+001
      vertex  1.902566e+001 -1.550000e+001 -2.327605e+001
      vertex  2.323842e+001 -1.350000e+001 -2.327605e+001
    endloop
  endfacet
  facet normal  -0.000000e+000  0.000000e+000 -1.000000e+000
    outer loop
      vertex  2.323842e+001 -1.350000e+001 -2.327605e+001
      vertex  1.902566e+001 -1.550000e+001 -2.327605e+001
      vertex  1.902566e+001 -1.350000e+001 -2.327605e+001
    endloop
  endfacet
  facet normal -1.000000e+000  -0.000000e+000  0.000000e+000
    outer loop
      vertex  1.902566e+001 -1.550000e+001 -1.289840e+000
      vertex  1.902566e+001 -1.350000e+001 -1.289840e+000
      vertex  1.902566e+001 -1.550000e+001 -2.327605e+001
    endloop
  endfacet
  facet normal -1.000000e+000  0.000000e+000  0.000000e+000
    outer loop
      vertex  1.902566e+001 -1.550000e+001 -2.327605e+001
      vertex  1.902566e+001 -1.350000e+001 -1.289840e+000
      vertex  1.902566e+001 -1.350000e+001 -2.327605e+001
    endloop
  endfacet
  facet normal  0.000000e+000  0.000000e+000 -1.000000e+000
    outer loop
      vertex -1.998269e+001 -1.550000e+001 -1.289840e+000
      vertex -1.998269e+001 -1.350000e+001 -1.289840e+000
      vertex  1.902566e+001 -1.550000e+001 -1.289840e+000
    endloop
  endfacet
  facet normal  0.000000e+000  0.000000e+000 -1.000000e+000
    outer loop
      vertex  1.902566e+001 -1.550000e+001 -1.289840e+000
      vertex -1.998269e+001 -1.350000e+001 -1.289840e+000
      vertex  1.902566e+001 -1.350000e+001 -1.289840e+000
    endloop
  endfacet
  facet normal  1.000000e+000  0.000000e+000  0.000000e+000
    outer loop
      vertex -1.998269e+001 -1.550000e+001 -2.327605e+001
      vertex -1.998269e+001 -1.350000e+001 -2.327605e+001
      vertex -1.998269e+001 -1.550000e+001 -1.289840e+000
    endloop
  endfacet
  facet normal  1.000000e+000  -0.000000e+000  0.000000e+000
    outer loop
      vertex -1.998269e+001 -1.550000e+001 -1.289840e+000
      vertex -1.998269e+001 -1.350000e+001 -2.327605e+001
      vertex -1.998269e+001 -1.350000e+001 -1.289840e+000
    endloop
  endfacet
  facet normal  0.000000e+000  0.000000e+000 -1.000000e+000
    outer loop
      vertex -1.998269e+001 -1.550000e+001 -2.327605e+001
      vertex -2.388001e+001 -1.550000e+001 -2.327605e+001
      vertex -1.998269e+001 -1.350000e+001 -2.327605e+001
    endloop
  endfacet
  facet normal  -0.000000e+000  0.000000e+000 -1.000000e+000
    outer loop
      vertex -1.998269e+001 -1.350000e+001 -2.327605e+001
      vertex -2.388001e+001 -1.550000e+001 -2.327605e+001
      vertex -2.388001e+001 -1.350000e+001 -2.327605e+001
    endloop
  endfacet
  facet normal -1.000000e+000  -0.000000e+000  0.000000e+000
    outer loop
      vertex -2.388001e+001 -1.550000e+001  8.123722e+000
      vertex -2.388001e+001 -1.350000e+001  8.123722e+000
      vertex -2.388001e+001 -1.550000e+001 -2.327605e+001
    endloop
  endfacet
  facet normal -1.000000e+000  0.000000e+000  0.000000e+000
    outer loop
      vertex -2.388001e+001 -1.550000e+001 -2.327605e+001
      vertex -2.388001e+001 -1.350000e+001  8.123722e+000
      vertex -2.388001e+001 -1.350000e+001 -2.327605e+001
    endloop
  endfacet
  facet normal  0.000000e+000  1.000000e+000  0.000000e+000
    outer loop
      vertex -2.092795e+001 -5.500000e+000 -2.000000e-001
      vertex -2.092795e+001 -5.500000e+000  1.800000e+000
      vertex -9.847991e+000 -5.500000e+000 -2.000000e-001
    endloop
  endfacet
  facet normal  0.000000e+000  1.000000e+000  -0.000000e+000
    outer loop
      vertex -9.847991e+000 -5.500000e+000 -2.000000e-001
      vertex -2.092795e+001 -5.500000e+000  1.800000e+000
      vertex -9.847991e+000 -5.500000e+000  1.800000e+000
    endloop
  endfacet
  facet normal  0.000000e+000  1.000000e+000  0.000000e+000
    outer loop
      vertex -2.092795e+001 -5.500000e+000  3.800000e+000
      vertex -2.092795e+001 -5.500000e+000  5.800000e+000
      vertex -9.847991e+000 -5.500000e+000  3.800000e+000
    endloop
  endfacet
  facet normal  0.000000e+000  1.000000e+000  -0.000000e+000
    outer loop
      vertex -9.847991e+000 -5.500000e+000  3.800000e+000
      vertex -2.092795e+001 -5.500000e+000  5.800000e+000
      vertex -9.847991e+000 -5.500000e+000  5.800000e+000
    endloop
  endfacet
  facet normal  0.000000e+000  1.000000e+000  0.000000e+000
    outer loop
      vertex  9.847991e+000 -5.500000e+000 -2.000000e-001
      vertex  9.847991e+000 -5.500000e+000  1.800000e+000
      vertex  2.092795e+001 -5.500000e+000 -2.000000e-001
    endloop
  endfacet
  facet normal  0.000000e+000  1.000000e+000  -0.000000e+000
    outer loop
      vertex  2.092795e+001 -5.500000e+000 -2.000000e-001
      vertex  9.847991e+000 -5.500000e+000  1.800000e+000
      vertex  2.092795e+001 -5.500000e+000  1.800000e+000
    endloop
  endfacet
  facet normal  0.000000e+000  1.000000e+000  0.000000e+000
    outer loop
      vertex  9.847991e+000 -5.500000e+000  3.800000e+000
      vertex  9.847991e+000 -5.500000e+000  5.800000e+000
      vertex  2.092795e+001 -5.500000e+000  3.800000e+000
    endloop
  endfacet
  facet normal  0.000000e+000  1.000000e+000  -0.000000e+000
    outer loop
      vertex  2.092795e+001 -5.500000e+000  3.800000e+000
      vertex  9.847991e+000 -5.500000e+000  5.800000e+000
      vertex  2.092795e+001 -5.500000e+000  5.800000e+000
    endloop
  endfacet
endsolid CATIA STL
