solid CATIA STL
  facet normal  -0.000000e+000 -1.000000e+000  0.000000e+000
    outer loop
      vertex -1.299717e+001  1.877000e+001  2.550843e+001
      vertex -1.216958e+001  1.877000e+001  3.260843e+001
      vertex -1.299717e+001  1.877000e+001  3.260843e+001
    endloop
  endfacet
  facet normal  -0.000000e+000 -1.000000e+000  0.000000e+000
    outer loop
      vertex -1.299717e+001  1.877000e+001  2.550843e+001
      vertex -1.415247e+000  1.877000e+001  3.260843e+001
      vertex -1.216958e+001  1.877000e+001  3.260843e+001
    endloop
  endfacet
  facet normal  0.000000e+000 -1.000000e+000  0.000000e+000
    outer loop
      vertex  2.002829e+000  1.877000e+001  4.490843e+001
      vertex -1.299717e+001  1.877000e+001  4.490843e+001
      vertex -1.299717e+001  1.877000e+001  3.780843e+001
    endloop
  endfacet
  facet normal  0.000000e+000 -9.999999e-001  0.000000e+000
    outer loop
      vertex  2.002829e+000  1.877000e+001  4.490843e+001
      vertex -1.299717e+001  1.877000e+001  3.780843e+001
      vertex -1.216958e+001  1.877000e+001  3.780843e+001
    endloop
  endfacet
  facet normal  0.000000e+000 -1.000000e+000  0.000000e+000
    outer loop
      vertex  2.002829e+000  1.877000e+001  4.490843e+001
      vertex -1.216958e+001  1.877000e+001  3.780843e+001
      vertex -1.415247e+000  1.877000e+001  3.780843e+001
    endloop
  endfacet
  facet normal  0.000000e+000 -9.999999e-001  0.000000e+000
    outer loop
      vertex  2.002829e+000  1.877000e+001  4.490843e+001
      vertex -1.415247e+000  1.877000e+001  3.780843e+001
      vertex -1.103020e+000  1.877000e+001  3.734458e+001
    endloop
  endfacet
  facet normal  0.000000e+000 -9.999999e-001  0.000000e+000
    outer loop
      vertex  2.002829e+000  1.877000e+001  4.490843e+001
      vertex -1.103020e+000  1.877000e+001  3.734458e+001
      vertex -8.543880e-001  1.877000e+001  3.684376e+001
    endloop
  endfacet
  facet normal  0.000000e+000 -1.000000e+000  0.000000e+000
    outer loop
      vertex  2.002829e+000  1.877000e+001  4.490843e+001
      vertex -8.543880e-001  1.877000e+001  3.684376e+001
      vertex -6.736544e-001  1.877000e+001  3.631463e+001
    endloop
  endfacet
  facet normal  0.000000e+000 -1.000000e+000  0.000000e+000
    outer loop
      vertex  2.002829e+000  1.877000e+001  4.490843e+001
      vertex -6.736544e-001  1.877000e+001  3.631463e+001
      vertex -5.639476e-001  1.877000e+001  3.576636e+001
    endloop
  endfacet
  facet normal  0.000000e+000 -1.000000e+000  0.000000e+000
    outer loop
      vertex  2.002829e+000  1.877000e+001  4.490843e+001
      vertex -5.639476e-001  1.877000e+001  3.576636e+001
      vertex -5.271664e-001  1.877000e+001  3.520843e+001
    endloop
  endfacet
  facet normal  0.000000e+000 -1.000000e+000  -0.000000e+000
    outer loop
      vertex  2.002829e+000  1.877000e+001  4.490843e+001
      vertex -5.271664e-001  1.877000e+001  3.520843e+001
      vertex -5.639476e-001  1.877000e+001  3.465050e+001
    endloop
  endfacet
  facet normal  0.000000e+000 -1.000000e+000  -0.000000e+000
    outer loop
      vertex  2.002829e+000  1.877000e+001  4.490843e+001
      vertex -5.639476e-001  1.877000e+001  3.465050e+001
      vertex -6.736544e-001  1.877000e+001  3.410222e+001
    endloop
  endfacet
  facet normal  0.000000e+000 -1.000000e+000  -0.000000e+000
    outer loop
      vertex  2.002829e+000  1.877000e+001  2.550843e+001
      vertex  2.002829e+000  1.877000e+001  4.490843e+001
      vertex -6.736544e-001  1.877000e+001  3.410222e+001
    endloop
  endfacet
  facet normal  0.000000e+000 -1.000000e+000  -0.000000e+000
    outer loop
      vertex  2.002829e+000  1.877000e+001  2.550843e+001
      vertex -6.736544e-001  1.877000e+001  3.410222e+001
      vertex -8.543880e-001  1.877000e+001  3.357310e+001
    endloop
  endfacet
  facet normal  0.000000e+000 -1.000000e+000  -0.000000e+000
    outer loop
      vertex  2.002829e+000  1.877000e+001  2.550843e+001
      vertex -8.543880e-001  1.877000e+001  3.357310e+001
      vertex -1.103020e+000  1.877000e+001  3.307227e+001
    endloop
  endfacet
  facet normal  0.000000e+000 -1.000000e+000  -0.000000e+000
    outer loop
      vertex  2.002829e+000  1.877000e+001  2.550843e+001
      vertex -1.103020e+000  1.877000e+001  3.307227e+001
      vertex -1.415247e+000  1.877000e+001  3.260843e+001
    endloop
  endfacet
  facet normal  0.000000e+000 -1.000000e+000  -0.000000e+000
    outer loop
      vertex  2.002829e+000  1.877000e+001  2.550843e+001
      vertex -1.415247e+000  1.877000e+001  3.260843e+001
      vertex -1.299717e+001  1.877000e+001  2.550843e+001
    endloop
  endfacet
  facet normal  0.000000e+000  1.000000e+000  0.000000e+000
    outer loop
      vertex -1.299717e+001  2.160000e+001  4.570843e+001
      vertex  1.900283e+001  2.160000e+001  4.570843e+001
      vertex  1.900283e+001  2.160000e+001  2.470843e+001
    endloop
  endfacet
  facet normal  0.000000e+000  1.000000e+000  0.000000e+000
    outer loop
      vertex -1.299717e+001  2.160000e+001  4.570843e+001
      vertex  1.900283e+001  2.160000e+001  2.470843e+001
      vertex -1.415247e+000  2.160000e+001  3.780843e+001
    endloop
  endfacet
  facet normal  0.000000e+000  1.000000e+000  0.000000e+000
    outer loop
      vertex -1.299717e+001  2.160000e+001  4.570843e+001
      vertex -1.415247e+000  2.160000e+001  3.780843e+001
      vertex -1.216958e+001  2.160000e+001  3.780843e+001
    endloop
  endfacet
  facet normal  0.000000e+000  1.000000e+000  0.000000e+000
    outer loop
      vertex -1.299717e+001  2.160000e+001  4.570843e+001
      vertex -1.216958e+001  2.160000e+001  3.780843e+001
      vertex -1.299717e+001  2.160000e+001  3.780843e+001
    endloop
  endfacet
  facet normal  0.000000e+000  9.999999e-001  0.000000e+000
    outer loop
      vertex  1.900283e+001  2.160000e+001  2.470843e+001
      vertex -1.299717e+001  2.160000e+001  2.470843e+001
      vertex -1.299717e+001  2.160000e+001  3.260843e+001
    endloop
  endfacet
  facet normal  -0.000000e+000  1.000000e+000  0.000000e+000
    outer loop
      vertex  1.900283e+001  2.160000e+001  2.470843e+001
      vertex -1.299717e+001  2.160000e+001  3.260843e+001
      vertex -1.216958e+001  2.160000e+001  3.260843e+001
    endloop
  endfacet
  facet normal  -0.000000e+000  1.000000e+000  0.000000e+000
    outer loop
      vertex  1.900283e+001  2.160000e+001  2.470843e+001
      vertex -1.216958e+001  2.160000e+001  3.260843e+001
      vertex -1.415247e+000  2.160000e+001  3.260843e+001
    endloop
  endfacet
  facet normal  -0.000000e+000  1.000000e+000  0.000000e+000
    outer loop
      vertex  1.900283e+001  2.160000e+001  2.470843e+001
      vertex -1.415247e+000  2.160000e+001  3.260843e+001
      vertex -1.103020e+000  2.160000e+001  3.307227e+001
    endloop
  endfacet
  facet normal  -0.000000e+000  9.999999e-001  0.000000e+000
    outer loop
      vertex  1.900283e+001  2.160000e+001  2.470843e+001
      vertex -1.103020e+000  2.160000e+001  3.307227e+001
      vertex -8.543880e-001  2.160000e+001  3.357310e+001
    endloop
  endfacet
  facet normal  -0.000000e+000  1.000000e+000  0.000000e+000
    outer loop
      vertex  1.900283e+001  2.160000e+001  2.470843e+001
      vertex -8.543880e-001  2.160000e+001  3.357310e+001
      vertex -6.736544e-001  2.160000e+001  3.410222e+001
    endloop
  endfacet
  facet normal  -0.000000e+000  1.000000e+000  0.000000e+000
    outer loop
      vertex  1.900283e+001  2.160000e+001  2.470843e+001
      vertex -6.736544e-001  2.160000e+001  3.410222e+001
      vertex -5.639476e-001  2.160000e+001  3.465050e+001
    endloop
  endfacet
  facet normal  -0.000000e+000  1.000000e+000  0.000000e+000
    outer loop
      vertex  1.900283e+001  2.160000e+001  2.470843e+001
      vertex -5.639476e-001  2.160000e+001  3.465050e+001
      vertex -5.271664e-001  2.160000e+001  3.520843e+001
    endloop
  endfacet
  facet normal  -0.000000e+000  1.000000e+000  -0.000000e+000
    outer loop
      vertex  1.900283e+001  2.160000e+001  2.470843e+001
      vertex -5.271664e-001  2.160000e+001  3.520843e+001
      vertex -5.639476e-001  2.160000e+001  3.576636e+001
    endloop
  endfacet
  facet normal  -0.000000e+000  1.000000e+000  -0.000000e+000
    outer loop
      vertex  1.900283e+001  2.160000e+001  2.470843e+001
      vertex -5.639476e-001  2.160000e+001  3.576636e+001
      vertex -6.736544e-001  2.160000e+001  3.631463e+001
    endloop
  endfacet
  facet normal  -0.000000e+000  1.000000e+000  -0.000000e+000
    outer loop
      vertex  1.900283e+001  2.160000e+001  2.470843e+001
      vertex -6.736544e-001  2.160000e+001  3.631463e+001
      vertex -8.543880e-001  2.160000e+001  3.684376e+001
    endloop
  endfacet
  facet normal  -0.000000e+000  9.999999e-001  -0.000000e+000
    outer loop
      vertex  1.900283e+001  2.160000e+001  2.470843e+001
      vertex -8.543880e-001  2.160000e+001  3.684376e+001
      vertex -1.103020e+000  2.160000e+001  3.734458e+001
    endloop
  endfacet
  facet normal  -0.000000e+000  9.999999e-001  -0.000000e+000
    outer loop
      vertex  1.900283e+001  2.160000e+001  2.470843e+001
      vertex -1.103020e+000  2.160000e+001  3.734458e+001
      vertex -1.415247e+000  2.160000e+001  3.780843e+001
    endloop
  endfacet
  facet normal -1.000000e+000  0.000000e+000  0.000000e+000
    outer loop
      vertex -1.299717e+001  1.877000e+001  2.550843e+001
      vertex -1.299717e+001  2.160000e+001  2.470843e+001
      vertex -1.299717e+001  1.610000e+001  2.550843e+001
    endloop
  endfacet
  facet normal -1.000000e+000  0.000000e+000  0.000000e+000
    outer loop
      vertex -1.299717e+001  1.610000e+001  2.550843e+001
      vertex -1.299717e+001  2.160000e+001  2.470843e+001
      vertex -1.299717e+001  1.860000e+001  2.170843e+001
    endloop
  endfacet
  facet normal -1.000000e+000  0.000000e+000  0.000000e+000
    outer loop
      vertex -1.299717e+001  1.610000e+001  2.550843e+001
      vertex -1.299717e+001  1.860000e+001  2.170843e+001
      vertex -1.299717e+001  1.610000e+001  2.170843e+001
    endloop
  endfacet
  facet normal -1.000000e+000  0.000000e+000  0.000000e+000
    outer loop
      vertex -1.299717e+001  2.160000e+001  3.260843e+001
      vertex -1.299717e+001  2.160000e+001  2.470843e+001
      vertex -1.299717e+001  1.877000e+001  3.260843e+001
    endloop
  endfacet
  facet normal -1.000000e+000  0.000000e+000  0.000000e+000
    outer loop
      vertex -1.299717e+001  1.877000e+001  3.260843e+001
      vertex -1.299717e+001  2.160000e+001  2.470843e+001
      vertex -1.299717e+001  1.877000e+001  2.550843e+001
    endloop
  endfacet
  facet normal -1.000000e+000  0.000000e+000  0.000000e+000
    outer loop
      vertex -1.299717e+001  1.610000e+001  4.490843e+001
      vertex -1.299717e+001  2.160000e+001  4.570843e+001
      vertex -1.299717e+001  1.877000e+001  4.490843e+001
    endloop
  endfacet
  facet normal -1.000000e+000  0.000000e+000  0.000000e+000
    outer loop
      vertex -1.299717e+001  1.877000e+001  4.490843e+001
      vertex -1.299717e+001  2.160000e+001  4.570843e+001
      vertex -1.299717e+001  2.160000e+001  3.780843e+001
    endloop
  endfacet
  facet normal -1.000000e+000  0.000000e+000  0.000000e+000
    outer loop
      vertex -1.299717e+001  1.877000e+001  4.490843e+001
      vertex -1.299717e+001  2.160000e+001  3.780843e+001
      vertex -1.299717e+001  1.877000e+001  3.780843e+001
    endloop
  endfacet
  facet normal -1.000000e+000  0.000000e+000  0.000000e+000
    outer loop
      vertex -1.299717e+001  2.160000e+001  4.570843e+001
      vertex -1.299717e+001  1.610000e+001  4.490843e+001
      vertex -1.299717e+001  1.860000e+001  4.870843e+001
    endloop
  endfacet
  facet normal -1.000000e+000  -0.000000e+000  0.000000e+000
    outer loop
      vertex -1.299717e+001  1.860000e+001  4.870843e+001
      vertex -1.299717e+001  1.610000e+001  4.490843e+001
      vertex -1.299717e+001  1.610000e+001  4.870843e+001
    endloop
  endfacet
  facet normal  0.000000e+000  0.000000e+000 -1.000000e+000
    outer loop
      vertex -1.216958e+001  1.877000e+001  3.780843e+001
      vertex -1.299717e+001  1.877000e+001  3.780843e+001
      vertex -1.216958e+001  2.160000e+001  3.780843e+001
    endloop
  endfacet
  facet normal  -0.000000e+000  0.000000e+000 -1.000000e+000
    outer loop
      vertex -1.216958e+001  2.160000e+001  3.780843e+001
      vertex -1.299717e+001  1.877000e+001  3.780843e+001
      vertex -1.299717e+001  2.160000e+001  3.780843e+001
    endloop
  endfacet
  facet normal  0.000000e+000  0.000000e+000 -9.999999e-001
    outer loop
      vertex -1.415247e+000  1.877000e+001  3.780843e+001
      vertex -1.216958e+001  1.877000e+001  3.780843e+001
      vertex -1.415247e+000  2.160000e+001  3.780843e+001
    endloop
  endfacet
  facet normal  -0.000000e+000  0.000000e+000 -9.999999e-001
    outer loop
      vertex -1.415247e+000  2.160000e+001  3.780843e+001
      vertex -1.216958e+001  1.877000e+001  3.780843e+001
      vertex -1.216958e+001  2.160000e+001  3.780843e+001
    endloop
  endfacet
  facet normal -9.978341e-001  0.000000e+000  6.578160e-002
    outer loop
      vertex -5.271664e-001  1.877000e+001  3.520843e+001
      vertex -5.639476e-001  2.160000e+001  3.465050e+001
      vertex -5.639476e-001  1.877000e+001  3.465050e+001
    endloop
  endfacet
  facet normal -9.805628e-001  0.000000e+000  1.962052e-001
    outer loop
      vertex -5.639476e-001  1.877000e+001  3.465050e+001
      vertex -5.639476e-001  2.160000e+001  3.465050e+001
      vertex -6.736544e-001  2.160000e+001  3.410222e+001
    endloop
  endfacet
  facet normal -9.805628e-001  0.000000e+000  1.962052e-001
    outer loop
      vertex -5.639476e-001  1.877000e+001  3.465050e+001
      vertex -6.736544e-001  2.160000e+001  3.410222e+001
      vertex -6.736544e-001  1.877000e+001  3.410222e+001
    endloop
  endfacet
  facet normal -9.463188e-001  0.000000e+000  3.232347e-001
    outer loop
      vertex -6.736544e-001  1.877000e+001  3.410222e+001
      vertex -6.736544e-001  2.160000e+001  3.410222e+001
      vertex -8.543880e-001  2.160000e+001  3.357310e+001
    endloop
  endfacet
  facet normal -9.463188e-001  0.000000e+000  3.232347e-001
    outer loop
      vertex -6.736544e-001  1.877000e+001  3.410222e+001
      vertex -8.543880e-001  2.160000e+001  3.357310e+001
      vertex -8.543880e-001  1.877000e+001  3.357310e+001
    endloop
  endfacet
  facet normal -8.956968e-001  0.000000e+000  4.446653e-001
    outer loop
      vertex -8.543880e-001  1.877000e+001  3.357310e+001
      vertex -8.543880e-001  2.160000e+001  3.357310e+001
      vertex -1.103020e+000  2.160000e+001  3.307227e+001
    endloop
  endfacet
  facet normal -8.956968e-001  0.000000e+000  4.446653e-001
    outer loop
      vertex -8.543880e-001  1.877000e+001  3.357310e+001
      vertex -1.103020e+000  2.160000e+001  3.307227e+001
      vertex -1.103020e+000  1.877000e+001  3.307227e+001
    endloop
  endfacet
  facet normal -8.295677e-001  0.000000e+000  5.584062e-001
    outer loop
      vertex -1.103020e+000  1.877000e+001  3.307227e+001
      vertex -1.103020e+000  2.160000e+001  3.307227e+001
      vertex -1.415247e+000  2.160000e+001  3.260843e+001
    endloop
  endfacet
  facet normal -8.295677e-001  0.000000e+000  5.584062e-001
    outer loop
      vertex -1.103020e+000  1.877000e+001  3.307227e+001
      vertex -1.415247e+000  2.160000e+001  3.260843e+001
      vertex -1.415247e+000  1.877000e+001  3.260843e+001
    endloop
  endfacet
  facet normal -9.978341e-001  0.000000e+000  6.578160e-002
    outer loop
      vertex -5.639476e-001  2.160000e+001  3.465050e+001
      vertex -5.271664e-001  1.877000e+001  3.520843e+001
      vertex -5.271664e-001  2.160000e+001  3.520843e+001
    endloop
  endfacet
  facet normal -9.978341e-001  -0.000000e+000 -6.578160e-002
    outer loop
      vertex -5.271664e-001  2.160000e+001  3.520843e+001
      vertex -5.271664e-001  1.877000e+001  3.520843e+001
      vertex -5.639476e-001  1.877000e+001  3.576636e+001
    endloop
  endfacet
  facet normal -9.978341e-001  0.000000e+000 -6.578160e-002
    outer loop
      vertex -5.271664e-001  2.160000e+001  3.520843e+001
      vertex -5.639476e-001  1.877000e+001  3.576636e+001
      vertex -5.639476e-001  2.160000e+001  3.576636e+001
    endloop
  endfacet
  facet normal -9.805628e-001  -0.000000e+000 -1.962052e-001
    outer loop
      vertex -5.639476e-001  2.160000e+001  3.576636e+001
      vertex -5.639476e-001  1.877000e+001  3.576636e+001
      vertex -6.736544e-001  1.877000e+001  3.631463e+001
    endloop
  endfacet
  facet normal -9.805628e-001  0.000000e+000 -1.962052e-001
    outer loop
      vertex -5.639476e-001  2.160000e+001  3.576636e+001
      vertex -6.736544e-001  1.877000e+001  3.631463e+001
      vertex -6.736544e-001  2.160000e+001  3.631463e+001
    endloop
  endfacet
  facet normal -9.463196e-001  -0.000000e+000 -3.232327e-001
    outer loop
      vertex -6.736544e-001  2.160000e+001  3.631463e+001
      vertex -6.736544e-001  1.877000e+001  3.631463e+001
      vertex -8.543880e-001  1.877000e+001  3.684376e+001
    endloop
  endfacet
  facet normal -9.463196e-001  0.000000e+000 -3.232327e-001
    outer loop
      vertex -6.736544e-001  2.160000e+001  3.631463e+001
      vertex -8.543880e-001  1.877000e+001  3.684376e+001
      vertex -8.543880e-001  2.160000e+001  3.684376e+001
    endloop
  endfacet
  facet normal -8.956954e-001  -0.000000e+000 -4.446681e-001
    outer loop
      vertex -8.543880e-001  2.160000e+001  3.684376e+001
      vertex -8.543880e-001  1.877000e+001  3.684376e+001
      vertex -1.103020e+000  1.877000e+001  3.734458e+001
    endloop
  endfacet
  facet normal -8.956954e-001  0.000000e+000 -4.446681e-001
    outer loop
      vertex -8.543880e-001  2.160000e+001  3.684376e+001
      vertex -1.103020e+000  1.877000e+001  3.734458e+001
      vertex -1.103020e+000  2.160000e+001  3.734458e+001
    endloop
  endfacet
  facet normal -8.295698e-001  -0.000000e+000 -5.584030e-001
    outer loop
      vertex -1.103020e+000  2.160000e+001  3.734458e+001
      vertex -1.103020e+000  1.877000e+001  3.734458e+001
      vertex -1.415247e+000  1.877000e+001  3.780843e+001
    endloop
  endfacet
  facet normal -8.295698e-001  0.000000e+000 -5.584030e-001
    outer loop
      vertex -1.103020e+000  2.160000e+001  3.734458e+001
      vertex -1.415247e+000  1.877000e+001  3.780843e+001
      vertex -1.415247e+000  2.160000e+001  3.780843e+001
    endloop
  endfacet
  facet normal  0.000000e+000  0.000000e+000  9.999999e-001
    outer loop
      vertex -1.415247e+000  1.877000e+001  3.260843e+001
      vertex -1.415247e+000  2.160000e+001  3.260843e+001
      vertex -1.216958e+001  1.877000e+001  3.260843e+001
    endloop
  endfacet
  facet normal  0.000000e+000  0.000000e+000  9.999999e-001
    outer loop
      vertex -1.216958e+001  1.877000e+001  3.260843e+001
      vertex -1.415247e+000  2.160000e+001  3.260843e+001
      vertex -1.216958e+001  2.160000e+001  3.260843e+001
    endloop
  endfacet
  facet normal  0.000000e+000  0.000000e+000  1.000000e+000
    outer loop
      vertex -1.216958e+001  1.877000e+001  3.260843e+001
      vertex -1.216958e+001  2.160000e+001  3.260843e+001
      vertex -1.299717e+001  1.877000e+001  3.260843e+001
    endloop
  endfacet
  facet normal  0.000000e+000  0.000000e+000  1.000000e+000
    outer loop
      vertex -1.299717e+001  1.877000e+001  3.260843e+001
      vertex -1.216958e+001  2.160000e+001  3.260843e+001
      vertex -1.299717e+001  2.160000e+001  3.260843e+001
    endloop
  endfacet
  facet normal  0.000000e+000  0.000000e+000 -1.000000e+000
    outer loop
      vertex  1.900283e+001  2.100000e+001  4.490843e+001
      vertex  1.900283e+001  1.610000e+001  4.490843e+001
      vertex  2.002829e+000  2.100000e+001  4.490843e+001
    endloop
  endfacet
  facet normal  0.000000e+000  0.000000e+000 -1.000000e+000
    outer loop
      vertex  2.002829e+000  2.100000e+001  4.490843e+001
      vertex  1.900283e+001  1.610000e+001  4.490843e+001
      vertex  2.002829e+000  1.877000e+001  4.490843e+001
    endloop
  endfacet
  facet normal  0.000000e+000  0.000000e+000 -1.000000e+000
    outer loop
      vertex  1.900283e+001  1.610000e+001  4.490843e+001
      vertex -1.299717e+001  1.610000e+001  4.490843e+001
      vertex  2.002829e+000  1.877000e+001  4.490843e+001
    endloop
  endfacet
  facet normal  -0.000000e+000  0.000000e+000 -1.000000e+000
    outer loop
      vertex  2.002829e+000  1.877000e+001  4.490843e+001
      vertex -1.299717e+001  1.610000e+001  4.490843e+001
      vertex -1.299717e+001  1.877000e+001  4.490843e+001
    endloop
  endfacet
  facet normal  0.000000e+000 -1.000000e+000  0.000000e+000
    outer loop
      vertex  2.002829e+000  2.100000e+001  2.550843e+001
      vertex  1.900283e+001  2.100000e+001  2.550843e+001
      vertex  2.002829e+000  2.100000e+001  4.490843e+001
    endloop
  endfacet
  facet normal  0.000000e+000 -1.000000e+000  0.000000e+000
    outer loop
      vertex  2.002829e+000  2.100000e+001  4.490843e+001
      vertex  1.900283e+001  2.100000e+001  2.550843e+001
      vertex  1.900283e+001  2.100000e+001  4.490843e+001
    endloop
  endfacet
  facet normal  0.000000e+000  0.000000e+000  1.000000e+000
    outer loop
      vertex -1.299717e+001  1.610000e+001  2.550843e+001
      vertex  1.900283e+001  1.610000e+001  2.550843e+001
      vertex -1.299717e+001  1.877000e+001  2.550843e+001
    endloop
  endfacet
  facet normal  -0.000000e+000  0.000000e+000  1.000000e+000
    outer loop
      vertex -1.299717e+001  1.877000e+001  2.550843e+001
      vertex  1.900283e+001  1.610000e+001  2.550843e+001
      vertex  2.002829e+000  1.877000e+001  2.550843e+001
    endloop
  endfacet
  facet normal  0.000000e+000  0.000000e+000  1.000000e+000
    outer loop
      vertex  1.900283e+001  1.610000e+001  2.550843e+001
      vertex  1.900283e+001  2.100000e+001  2.550843e+001
      vertex  2.002829e+000  1.877000e+001  2.550843e+001
    endloop
  endfacet
  facet normal  0.000000e+000  0.000000e+000  1.000000e+000
    outer loop
      vertex  2.002829e+000  1.877000e+001  2.550843e+001
      vertex  1.900283e+001  2.100000e+001  2.550843e+001
      vertex  2.002829e+000  2.100000e+001  2.550843e+001
    endloop
  endfacet
  facet normal  1.000000e+000  0.000000e+000  0.000000e+000
    outer loop
      vertex  2.002829e+000  2.100000e+001  2.550843e+001
      vertex  2.002829e+000  2.100000e+001  4.490843e+001
      vertex  2.002829e+000  1.877000e+001  2.550843e+001
    endloop
  endfacet
  facet normal  1.000000e+000  0.000000e+000  0.000000e+000
    outer loop
      vertex  2.002829e+000  1.877000e+001  2.550843e+001
      vertex  2.002829e+000  2.100000e+001  4.490843e+001
      vertex  2.002829e+000  1.877000e+001  4.490843e+001
    endloop
  endfacet
  facet normal  -0.000000e+000  0.000000e+000 -1.000000e+000
    outer loop
      vertex -1.299717e+001  1.860000e+001  2.170843e+001
      vertex  2.200283e+001  1.860000e+001  2.170843e+001
      vertex -1.299717e+001  1.610000e+001  2.170843e+001
    endloop
  endfacet
  facet normal  0.000000e+000  0.000000e+000 -1.000000e+000
    outer loop
      vertex -1.299717e+001  1.610000e+001  2.170843e+001
      vertex  2.200283e+001  1.860000e+001  2.170843e+001
      vertex  2.200283e+001  1.610000e+001  2.170843e+001
    endloop
  endfacet
  facet normal  1.000000e+000  0.000000e+000  0.000000e+000
    outer loop
      vertex  2.200283e+001  1.860000e+001  2.170843e+001
      vertex  2.200283e+001  1.860000e+001  4.870843e+001
      vertex  2.200283e+001  1.610000e+001  2.170843e+001
    endloop
  endfacet
  facet normal  1.000000e+000  0.000000e+000  0.000000e+000
    outer loop
      vertex  2.200283e+001  1.610000e+001  2.170843e+001
      vertex  2.200283e+001  1.860000e+001  4.870843e+001
      vertex  2.200283e+001  1.610000e+001  4.870843e+001
    endloop
  endfacet
  facet normal  -0.000000e+000  0.000000e+000  1.000000e+000
    outer loop
      vertex  2.200283e+001  1.860000e+001  4.870843e+001
      vertex -1.299717e+001  1.860000e+001  4.870843e+001
      vertex  2.200283e+001  1.610000e+001  4.870843e+001
    endloop
  endfacet
  facet normal  0.000000e+000  0.000000e+000  1.000000e+000
    outer loop
      vertex  2.200283e+001  1.610000e+001  4.870843e+001
      vertex -1.299717e+001  1.860000e+001  4.870843e+001
      vertex -1.299717e+001  1.610000e+001  4.870843e+001
    endloop
  endfacet
  facet normal  0.000000e+000  7.071068e-001 -7.071068e-001
    outer loop
      vertex -1.299717e+001  2.160000e+001  2.470843e+001
      vertex  1.900283e+001  2.160000e+001  2.470843e+001
      vertex -1.299717e+001  1.860000e+001  2.170843e+001
    endloop
  endfacet
  facet normal  0.000000e+000  7.071067e-001 -7.071067e-001
    outer loop
      vertex -1.299717e+001  1.860000e+001  2.170843e+001
      vertex  1.900283e+001  2.160000e+001  2.470843e+001
      vertex  2.200283e+001  1.860000e+001  2.170843e+001
    endloop
  endfacet
  facet normal  7.071068e-001  7.071068e-001  0.000000e+000
    outer loop
      vertex  1.900283e+001  2.160000e+001  2.470843e+001
      vertex  1.900283e+001  2.160000e+001  4.570843e+001
      vertex  2.200283e+001  1.860000e+001  2.170843e+001
    endloop
  endfacet
  facet normal  7.071068e-001  7.071068e-001  -0.000000e+000
    outer loop
      vertex  2.200283e+001  1.860000e+001  2.170843e+001
      vertex  1.900283e+001  2.160000e+001  4.570843e+001
      vertex  2.200283e+001  1.860000e+001  4.870843e+001
    endloop
  endfacet
  facet normal  -0.000000e+000  7.071068e-001  7.071068e-001
    outer loop
      vertex  1.900283e+001  2.160000e+001  4.570843e+001
      vertex -1.299717e+001  2.160000e+001  4.570843e+001
      vertex  2.200283e+001  1.860000e+001  4.870843e+001
    endloop
  endfacet
  facet normal  0.000000e+000  7.071067e-001  7.071067e-001
    outer loop
      vertex  2.200283e+001  1.860000e+001  4.870843e+001
      vertex -1.299717e+001  2.160000e+001  4.570843e+001
      vertex -1.299717e+001  1.860000e+001  4.870843e+001
    endloop
  endfacet
  facet normal  0.000000e+000 -1.000000e+000  0.000000e+000
    outer loop
      vertex  2.200283e+001  1.610000e+001  2.170843e+001
      vertex -1.299717e+001  1.610000e+001  2.550843e+001
      vertex -1.299717e+001  1.610000e+001  2.170843e+001
    endloop
  endfacet
  facet normal  0.000000e+000 -1.000000e+000  0.000000e+000
    outer loop
      vertex -1.299717e+001  1.610000e+001  2.550843e+001
      vertex  2.200283e+001  1.610000e+001  2.170843e+001
      vertex  1.900283e+001  1.610000e+001  2.550843e+001
    endloop
  endfacet
  facet normal  0.000000e+000 -1.000000e+000  0.000000e+000
    outer loop
      vertex  1.900283e+001  1.610000e+001  2.550843e+001
      vertex  2.200283e+001  1.610000e+001  2.170843e+001
      vertex  2.200283e+001  1.610000e+001  4.870843e+001
    endloop
  endfacet
  facet normal  0.000000e+000 -1.000000e+000  0.000000e+000
    outer loop
      vertex  1.900283e+001  1.610000e+001  2.550843e+001
      vertex  2.200283e+001  1.610000e+001  4.870843e+001
      vertex  1.900283e+001  1.610000e+001  4.490843e+001
    endloop
  endfacet
  facet normal  0.000000e+000 -1.000000e+000  0.000000e+000
    outer loop
      vertex  1.900283e+001  1.610000e+001  4.490843e+001
      vertex  2.200283e+001  1.610000e+001  4.870843e+001
      vertex -1.299717e+001  1.610000e+001  4.870843e+001
    endloop
  endfacet
  facet normal  0.000000e+000 -9.999999e-001  0.000000e+000
    outer loop
      vertex  1.900283e+001  1.610000e+001  4.490843e+001
      vertex -1.299717e+001  1.610000e+001  4.870843e+001
      vertex -1.299717e+001  1.610000e+001  4.490843e+001
    endloop
  endfacet
  facet normal -1.000000e+000  0.000000e+000  0.000000e+000
    outer loop
      vertex  1.900283e+001  2.100000e+001  2.550843e+001
      vertex  1.900283e+001  1.610000e+001  2.550843e+001
      vertex  1.900283e+001  2.100000e+001  4.490843e+001
    endloop
  endfacet
  facet normal -1.000000e+000  -0.000000e+000  0.000000e+000
    outer loop
      vertex  1.900283e+001  2.100000e+001  4.490843e+001
      vertex  1.900283e+001  1.610000e+001  2.550843e+001
      vertex  1.900283e+001  1.610000e+001  4.490843e+001
    endloop
  endfacet
endsolid CATIA STL
