solid CATIA STL
  facet normal  1.000000e+000  0.000000e+000  0.000000e+000
    outer loop
      vertex  6.448585e+000  4.945934e+000 -3.927530e+001
      vertex  6.448585e+000  4.945934e+000 -3.577530e+001
      vertex  6.448585e+000 -4.945934e+000 -3.927530e+001
    endloop
  endfacet
  facet normal  1.000000e+000  0.000000e+000  0.000000e+000
    outer loop
      vertex  6.448585e+000 -4.945934e+000 -3.927530e+001
      vertex  6.448585e+000  4.945934e+000 -3.577530e+001
      vertex  6.448585e+000 -4.945934e+000 -3.577530e+001
    endloop
  endfacet
  facet normal -1.000000e+000  0.000000e+000  0.000000e+000
    outer loop
      vertex -7.948585e+000  4.945934e+000 -5.316760e+001
      vertex -7.948585e+000 -4.945934e+000 -5.316760e+001
      vertex -7.948585e+000  4.945934e+000 -3.577530e+001
    endloop
  endfacet
  facet normal -1.000000e+000  -0.000000e+000  0.000000e+000
    outer loop
      vertex -7.948585e+000  4.945934e+000 -3.577530e+001
      vertex -7.948585e+000 -4.945934e+000 -5.316760e+001
      vertex -7.948585e+000 -4.945934e+000 -3.577530e+001
    endloop
  endfacet
  facet normal  0.000000e+000  1.000000e+000  0.000000e+000
    outer loop
      vertex -6.448585e+000  4.945934e+000 -5.316760e+001
      vertex -7.948585e+000  4.945934e+000 -5.316760e+001
      vertex -6.448585e+000  4.945934e+000 -3.927530e+001
    endloop
  endfacet
  facet normal  0.000000e+000  1.000000e+000  0.000000e+000
    outer loop
      vertex -6.448585e+000  4.945934e+000 -3.927530e+001
      vertex -7.948585e+000  4.945934e+000 -5.316760e+001
      vertex -7.948585e+000  4.945934e+000 -3.577530e+001
    endloop
  endfacet
  facet normal  0.000000e+000  1.000000e+000  0.000000e+000
    outer loop
      vertex -6.448585e+000  4.945934e+000 -3.927530e+001
      vertex -7.948585e+000  4.945934e+000 -3.577530e+001
      vertex  6.448585e+000  4.945934e+000 -3.927530e+001
    endloop
  endfacet
  facet normal  0.000000e+000  9.999999e-001  -0.000000e+000
    outer loop
      vertex  6.448585e+000  4.945934e+000 -3.927530e+001
      vertex -7.948585e+000  4.945934e+000 -3.577530e+001
      vertex  6.448585e+000  4.945934e+000 -3.577530e+001
    endloop
  endfacet
  facet normal  0.000000e+000  0.000000e+000  1.000000e+000
    outer loop
      vertex -7.948585e+000 -4.945934e+000 -3.577530e+001
      vertex  6.448585e+000 -4.945934e+000 -3.577530e+001
      vertex -7.948585e+000  4.945934e+000 -3.577530e+001
    endloop
  endfacet
  facet normal  -0.000000e+000  0.000000e+000  1.000000e+000
    outer loop
      vertex -7.948585e+000  4.945934e+000 -3.577530e+001
      vertex  6.448585e+000 -4.945934e+000 -3.577530e+001
      vertex  6.448585e+000  4.945934e+000 -3.577530e+001
    endloop
  endfacet
  facet normal  0.000000e+000 -1.000000e+000  0.000000e+000
    outer loop
      vertex -7.948585e+000 -4.945934e+000 -5.316760e+001
      vertex -6.448585e+000 -4.945934e+000 -5.316760e+001
      vertex -7.948585e+000 -4.945934e+000 -3.577530e+001
    endloop
  endfacet
  facet normal  0.000000e+000 -1.000000e+000  0.000000e+000
    outer loop
      vertex -7.948585e+000 -4.945934e+000 -3.577530e+001
      vertex -6.448585e+000 -4.945934e+000 -5.316760e+001
      vertex -6.448585e+000 -4.945934e+000 -3.927530e+001
    endloop
  endfacet
  facet normal  0.000000e+000 -9.999999e-001  0.000000e+000
    outer loop
      vertex -7.948585e+000 -4.945934e+000 -3.577530e+001
      vertex -6.448585e+000 -4.945934e+000 -3.927530e+001
      vertex  6.448585e+000 -4.945934e+000 -3.577530e+001
    endloop
  endfacet
  facet normal  0.000000e+000 -1.000000e+000  -0.000000e+000
    outer loop
      vertex  6.448585e+000 -4.945934e+000 -3.577530e+001
      vertex -6.448585e+000 -4.945934e+000 -3.927530e+001
      vertex  6.448585e+000 -4.945934e+000 -3.927530e+001
    endloop
  endfacet
  facet normal  1.000000e+000  0.000000e+000  0.000000e+000
    outer loop
      vertex -6.448585e+000 -4.945934e+000 -5.316760e+001
      vertex -6.448585e+000  4.945934e+000 -5.316760e+001
      vertex -6.448585e+000 -4.945934e+000 -3.927530e+001
    endloop
  endfacet
  facet normal  1.000000e+000  -0.000000e+000  0.000000e+000
    outer loop
      vertex -6.448585e+000 -4.945934e+000 -3.927530e+001
      vertex -6.448585e+000  4.945934e+000 -5.316760e+001
      vertex -6.448585e+000  4.945934e+000 -3.927530e+001
    endloop
  endfacet
  facet normal  -0.000000e+000  0.000000e+000 -1.000000e+000
    outer loop
      vertex -6.448585e+000  4.945934e+000 -3.927530e+001
      vertex  6.448585e+000  4.945934e+000 -3.927530e+001
      vertex -2.755364e-016  1.500000e+000 -3.927530e+001
    endloop
  endfacet
  facet normal  -0.000000e+000  0.000000e+000 -1.000000e+000
    outer loop
      vertex -6.448585e+000  4.945934e+000 -3.927530e+001
      vertex -2.755364e-016  1.500000e+000 -3.927530e+001
      vertex -2.926355e-001  1.471178e+000 -3.927530e+001
    endloop
  endfacet
  facet normal  -0.000000e+000  0.000000e+000 -1.000000e+000
    outer loop
      vertex -6.448585e+000  4.945934e+000 -3.927530e+001
      vertex -2.926355e-001  1.471178e+000 -3.927530e+001
      vertex -5.740252e-001  1.385819e+000 -3.927530e+001
    endloop
  endfacet
  facet normal  -0.000000e+000  0.000000e+000 -1.000000e+000
    outer loop
      vertex -6.448585e+000  4.945934e+000 -3.927530e+001
      vertex -5.740252e-001  1.385819e+000 -3.927530e+001
      vertex -8.333554e-001  1.247204e+000 -3.927530e+001
    endloop
  endfacet
  facet normal  -0.000000e+000  0.000000e+000 -1.000000e+000
    outer loop
      vertex -6.448585e+000  4.945934e+000 -3.927530e+001
      vertex -8.333554e-001  1.247204e+000 -3.927530e+001
      vertex -1.060660e+000  1.060660e+000 -3.927530e+001
    endloop
  endfacet
  facet normal  -0.000000e+000  0.000000e+000 -1.000000e+000
    outer loop
      vertex -6.448585e+000  4.945934e+000 -3.927530e+001
      vertex -1.060660e+000  1.060660e+000 -3.927530e+001
      vertex -6.448585e+000 -4.945934e+000 -3.927530e+001
    endloop
  endfacet
  facet normal  0.000000e+000  0.000000e+000 -1.000000e+000
    outer loop
      vertex -6.448585e+000 -4.945934e+000 -3.927530e+001
      vertex -1.060660e+000  1.060660e+000 -3.927530e+001
      vertex -1.247204e+000  8.333554e-001 -3.927530e+001
    endloop
  endfacet
  facet normal  0.000000e+000  0.000000e+000 -1.000000e+000
    outer loop
      vertex -6.448585e+000 -4.945934e+000 -3.927530e+001
      vertex -1.247204e+000  8.333554e-001 -3.927530e+001
      vertex -1.385819e+000  5.740252e-001 -3.927530e+001
    endloop
  endfacet
  facet normal  0.000000e+000  0.000000e+000 -9.999999e-001
    outer loop
      vertex -6.448585e+000 -4.945934e+000 -3.927530e+001
      vertex -1.385819e+000  5.740252e-001 -3.927530e+001
      vertex -1.471178e+000  2.926355e-001 -3.927530e+001
    endloop
  endfacet
  facet normal  0.000000e+000  0.000000e+000 -1.000000e+000
    outer loop
      vertex -6.448585e+000 -4.945934e+000 -3.927530e+001
      vertex -1.471178e+000  2.926355e-001 -3.927530e+001
      vertex -1.500000e+000 -1.836910e-016 -3.927530e+001
    endloop
  endfacet
  facet normal  0.000000e+000  -0.000000e+000 -9.999999e-001
    outer loop
      vertex -6.448585e+000 -4.945934e+000 -3.927530e+001
      vertex -1.500000e+000 -1.836910e-016 -3.927530e+001
      vertex -1.471178e+000 -2.926355e-001 -3.927530e+001
    endloop
  endfacet
  facet normal  0.000000e+000  -0.000000e+000 -1.000000e+000
    outer loop
      vertex -6.448585e+000 -4.945934e+000 -3.927530e+001
      vertex -1.471178e+000 -2.926355e-001 -3.927530e+001
      vertex -1.385819e+000 -5.740252e-001 -3.927530e+001
    endloop
  endfacet
  facet normal  0.000000e+000  -0.000000e+000 -9.999999e-001
    outer loop
      vertex -6.448585e+000 -4.945934e+000 -3.927530e+001
      vertex -1.385819e+000 -5.740252e-001 -3.927530e+001
      vertex -1.247204e+000 -8.333554e-001 -3.927530e+001
    endloop
  endfacet
  facet normal  0.000000e+000  -0.000000e+000 -9.999999e-001
    outer loop
      vertex -6.448585e+000 -4.945934e+000 -3.927530e+001
      vertex -1.247204e+000 -8.333554e-001 -3.927530e+001
      vertex -1.060660e+000 -1.060660e+000 -3.927530e+001
    endloop
  endfacet
  facet normal  0.000000e+000  -0.000000e+000 -1.000000e+000
    outer loop
      vertex -6.448585e+000 -4.945934e+000 -3.927530e+001
      vertex -1.060660e+000 -1.060660e+000 -3.927530e+001
      vertex -8.333554e-001 -1.247204e+000 -3.927530e+001
    endloop
  endfacet
  facet normal  0.000000e+000  -0.000000e+000 -1.000000e+000
    outer loop
      vertex -6.448585e+000 -4.945934e+000 -3.927530e+001
      vertex -8.333554e-001 -1.247204e+000 -3.927530e+001
      vertex -5.740252e-001 -1.385819e+000 -3.927530e+001
    endloop
  endfacet
  facet normal  0.000000e+000  -0.000000e+000 -1.000000e+000
    outer loop
      vertex -6.448585e+000 -4.945934e+000 -3.927530e+001
      vertex -5.740252e-001 -1.385819e+000 -3.927530e+001
      vertex -2.926355e-001 -1.471178e+000 -3.927530e+001
    endloop
  endfacet
  facet normal  0.000000e+000  -0.000000e+000 -1.000000e+000
    outer loop
      vertex -6.448585e+000 -4.945934e+000 -3.927530e+001
      vertex -2.926355e-001 -1.471178e+000 -3.927530e+001
      vertex  9.184548e-017 -1.500000e+000 -3.927530e+001
    endloop
  endfacet
  facet normal  0.000000e+000  -0.000000e+000 -1.000000e+000
    outer loop
      vertex -6.448585e+000 -4.945934e+000 -3.927530e+001
      vertex  9.184548e-017 -1.500000e+000 -3.927530e+001
      vertex  6.448585e+000 -4.945934e+000 -3.927530e+001
    endloop
  endfacet
  facet normal  0.000000e+000  0.000000e+000 -1.000000e+000
    outer loop
      vertex  6.448585e+000 -4.945934e+000 -3.927530e+001
      vertex  9.184548e-017 -1.500000e+000 -3.927530e+001
      vertex  2.926355e-001 -1.471178e+000 -3.927530e+001
    endloop
  endfacet
  facet normal  0.000000e+000  0.000000e+000 -1.000000e+000
    outer loop
      vertex  6.448585e+000 -4.945934e+000 -3.927530e+001
      vertex  2.926355e-001 -1.471178e+000 -3.927530e+001
      vertex  5.740252e-001 -1.385819e+000 -3.927530e+001
    endloop
  endfacet
  facet normal  0.000000e+000  0.000000e+000 -1.000000e+000
    outer loop
      vertex  6.448585e+000 -4.945934e+000 -3.927530e+001
      vertex  5.740252e-001 -1.385819e+000 -3.927530e+001
      vertex  8.333554e-001 -1.247204e+000 -3.927530e+001
    endloop
  endfacet
  facet normal  0.000000e+000  0.000000e+000 -1.000000e+000
    outer loop
      vertex  6.448585e+000 -4.945934e+000 -3.927530e+001
      vertex  8.333554e-001 -1.247204e+000 -3.927530e+001
      vertex  1.060660e+000 -1.060660e+000 -3.927530e+001
    endloop
  endfacet
  facet normal  0.000000e+000  0.000000e+000 -9.999999e-001
    outer loop
      vertex  6.448585e+000 -4.945934e+000 -3.927530e+001
      vertex  1.060660e+000 -1.060660e+000 -3.927530e+001
      vertex  1.247204e+000 -8.333554e-001 -3.927530e+001
    endloop
  endfacet
  facet normal  0.000000e+000  0.000000e+000 -9.999999e-001
    outer loop
      vertex  6.448585e+000 -4.945934e+000 -3.927530e+001
      vertex  1.247204e+000 -8.333554e-001 -3.927530e+001
      vertex  1.385819e+000 -5.740252e-001 -3.927530e+001
    endloop
  endfacet
  facet normal  0.000000e+000  0.000000e+000 -1.000000e+000
    outer loop
      vertex  6.448585e+000 -4.945934e+000 -3.927530e+001
      vertex  1.385819e+000 -5.740252e-001 -3.927530e+001
      vertex  1.471178e+000 -2.926355e-001 -3.927530e+001
    endloop
  endfacet
  facet normal  0.000000e+000  0.000000e+000 -1.000000e+000
    outer loop
      vertex  6.448585e+000 -4.945934e+000 -3.927530e+001
      vertex  1.471178e+000 -2.926355e-001 -3.927530e+001
      vertex  1.500000e+000  0.000000e+000 -3.927530e+001
    endloop
  endfacet
  facet normal  0.000000e+000  0.000000e+000 -1.000000e+000
    outer loop
      vertex  6.448585e+000 -4.945934e+000 -3.927530e+001
      vertex  1.500000e+000  0.000000e+000 -3.927530e+001
      vertex  1.471178e+000  2.926355e-001 -3.927530e+001
    endloop
  endfacet
  facet normal  0.000000e+000  0.000000e+000 -9.999999e-001
    outer loop
      vertex  6.448585e+000 -4.945934e+000 -3.927530e+001
      vertex  1.471178e+000  2.926355e-001 -3.927530e+001
      vertex  1.385819e+000  5.740252e-001 -3.927530e+001
    endloop
  endfacet
  facet normal  0.000000e+000  0.000000e+000 -1.000000e+000
    outer loop
      vertex  6.448585e+000 -4.945934e+000 -3.927530e+001
      vertex  1.385819e+000  5.740252e-001 -3.927530e+001
      vertex  1.247204e+000  8.333554e-001 -3.927530e+001
    endloop
  endfacet
  facet normal  0.000000e+000  0.000000e+000 -1.000000e+000
    outer loop
      vertex  6.448585e+000 -4.945934e+000 -3.927530e+001
      vertex  1.247204e+000  8.333554e-001 -3.927530e+001
      vertex  1.060660e+000  1.060660e+000 -3.927530e+001
    endloop
  endfacet
  facet normal  0.000000e+000  0.000000e+000 -1.000000e+000
    outer loop
      vertex  6.448585e+000  4.945934e+000 -3.927530e+001
      vertex  6.448585e+000 -4.945934e+000 -3.927530e+001
      vertex  1.060660e+000  1.060660e+000 -3.927530e+001
    endloop
  endfacet
  facet normal  0.000000e+000  0.000000e+000 -1.000000e+000
    outer loop
      vertex  6.448585e+000  4.945934e+000 -3.927530e+001
      vertex  1.060660e+000  1.060660e+000 -3.927530e+001
      vertex  8.333554e-001  1.247204e+000 -3.927530e+001
    endloop
  endfacet
  facet normal  0.000000e+000  0.000000e+000 -1.000000e+000
    outer loop
      vertex  6.448585e+000  4.945934e+000 -3.927530e+001
      vertex  8.333554e-001  1.247204e+000 -3.927530e+001
      vertex  5.740252e-001  1.385819e+000 -3.927530e+001
    endloop
  endfacet
  facet normal  0.000000e+000  0.000000e+000 -1.000000e+000
    outer loop
      vertex  6.448585e+000  4.945934e+000 -3.927530e+001
      vertex  5.740252e-001  1.385819e+000 -3.927530e+001
      vertex  2.926355e-001  1.471178e+000 -3.927530e+001
    endloop
  endfacet
  facet normal  0.000000e+000  0.000000e+000 -1.000000e+000
    outer loop
      vertex  6.448585e+000  4.945934e+000 -3.927530e+001
      vertex  2.926355e-001  1.471178e+000 -3.927530e+001
      vertex -2.755364e-016  1.500000e+000 -3.927530e+001
    endloop
  endfacet
  facet normal  -0.000000e+000  0.000000e+000 -1.000000e+000
    outer loop
      vertex -7.948585e+000  4.945934e+000 -5.316760e+001
      vertex -6.448585e+000  4.945934e+000 -5.316760e+001
      vertex -7.948585e+000 -4.945934e+000 -5.316760e+001
    endloop
  endfacet
  facet normal  0.000000e+000  0.000000e+000 -1.000000e+000
    outer loop
      vertex -7.948585e+000 -4.945934e+000 -5.316760e+001
      vertex -6.448585e+000  4.945934e+000 -5.316760e+001
      vertex -6.448585e+000 -4.945934e+000 -5.316760e+001
    endloop
  endfacet
  facet normal -9.801710e-002 -9.951848e-001  0.000000e+000
    outer loop
      vertex -2.755364e-016  1.500000e+000 -3.627530e+001
      vertex  2.926355e-001  1.471178e+000 -3.927530e+001
      vertex  2.926355e-001  1.471178e+000 -3.627530e+001
    endloop
  endfacet
  facet normal -2.902847e-001 -9.569404e-001  -0.000000e+000
    outer loop
      vertex  2.926355e-001  1.471178e+000 -3.627530e+001
      vertex  2.926355e-001  1.471178e+000 -3.927530e+001
      vertex  5.740252e-001  1.385819e+000 -3.927530e+001
    endloop
  endfacet
  facet normal -2.902847e-001 -9.569404e-001  0.000000e+000
    outer loop
      vertex  2.926355e-001  1.471178e+000 -3.627530e+001
      vertex  5.740252e-001  1.385819e+000 -3.927530e+001
      vertex  5.740252e-001  1.385819e+000 -3.627530e+001
    endloop
  endfacet
  facet normal -4.713968e-001 -8.819213e-001  -0.000000e+000
    outer loop
      vertex  5.740252e-001  1.385819e+000 -3.627530e+001
      vertex  5.740252e-001  1.385819e+000 -3.927530e+001
      vertex  8.333554e-001  1.247204e+000 -3.927530e+001
    endloop
  endfacet
  facet normal -4.713968e-001 -8.819213e-001  0.000000e+000
    outer loop
      vertex  5.740252e-001  1.385819e+000 -3.627530e+001
      vertex  8.333554e-001  1.247204e+000 -3.927530e+001
      vertex  8.333554e-001  1.247204e+000 -3.627530e+001
    endloop
  endfacet
  facet normal -6.343935e-001 -7.730103e-001  -0.000000e+000
    outer loop
      vertex  8.333554e-001  1.247204e+000 -3.627530e+001
      vertex  8.333554e-001  1.247204e+000 -3.927530e+001
      vertex  1.060660e+000  1.060660e+000 -3.927530e+001
    endloop
  endfacet
  facet normal -6.343935e-001 -7.730103e-001  0.000000e+000
    outer loop
      vertex  8.333554e-001  1.247204e+000 -3.627530e+001
      vertex  1.060660e+000  1.060660e+000 -3.927530e+001
      vertex  1.060660e+000  1.060660e+000 -3.627530e+001
    endloop
  endfacet
  facet normal -7.730103e-001 -6.343935e-001  -0.000000e+000
    outer loop
      vertex  1.060660e+000  1.060660e+000 -3.627530e+001
      vertex  1.060660e+000  1.060660e+000 -3.927530e+001
      vertex  1.247204e+000  8.333554e-001 -3.927530e+001
    endloop
  endfacet
  facet normal -7.730103e-001 -6.343935e-001  0.000000e+000
    outer loop
      vertex  1.060660e+000  1.060660e+000 -3.627530e+001
      vertex  1.247204e+000  8.333554e-001 -3.927530e+001
      vertex  1.247204e+000  8.333554e-001 -3.627530e+001
    endloop
  endfacet
  facet normal -8.819213e-001 -4.713968e-001  -0.000000e+000
    outer loop
      vertex  1.247204e+000  8.333554e-001 -3.627530e+001
      vertex  1.247204e+000  8.333554e-001 -3.927530e+001
      vertex  1.385819e+000  5.740252e-001 -3.927530e+001
    endloop
  endfacet
  facet normal -8.819213e-001 -4.713968e-001  0.000000e+000
    outer loop
      vertex  1.247204e+000  8.333554e-001 -3.627530e+001
      vertex  1.385819e+000  5.740252e-001 -3.927530e+001
      vertex  1.385819e+000  5.740252e-001 -3.627530e+001
    endloop
  endfacet
  facet normal -9.569404e-001 -2.902847e-001  -0.000000e+000
    outer loop
      vertex  1.385819e+000  5.740252e-001 -3.627530e+001
      vertex  1.385819e+000  5.740252e-001 -3.927530e+001
      vertex  1.471178e+000  2.926355e-001 -3.927530e+001
    endloop
  endfacet
  facet normal -9.569404e-001 -2.902847e-001  0.000000e+000
    outer loop
      vertex  1.385819e+000  5.740252e-001 -3.627530e+001
      vertex  1.471178e+000  2.926355e-001 -3.927530e+001
      vertex  1.471178e+000  2.926355e-001 -3.627530e+001
    endloop
  endfacet
  facet normal -9.951848e-001 -9.801710e-002  -0.000000e+000
    outer loop
      vertex  1.471178e+000  2.926355e-001 -3.627530e+001
      vertex  1.471178e+000  2.926355e-001 -3.927530e+001
      vertex  1.500000e+000  0.000000e+000 -3.927530e+001
    endloop
  endfacet
  facet normal -9.951848e-001 -9.801710e-002  0.000000e+000
    outer loop
      vertex  1.471178e+000  2.926355e-001 -3.627530e+001
      vertex  1.500000e+000  0.000000e+000 -3.927530e+001
      vertex  1.500000e+000  0.000000e+000 -3.627530e+001
    endloop
  endfacet
  facet normal -9.801710e-002 -9.951848e-001  -0.000000e+000
    outer loop
      vertex  2.926355e-001  1.471178e+000 -3.927530e+001
      vertex -2.755364e-016  1.500000e+000 -3.627530e+001
      vertex -2.755364e-016  1.500000e+000 -3.927530e+001
    endloop
  endfacet
  facet normal  9.801710e-002 -9.951848e-001  0.000000e+000
    outer loop
      vertex -2.755364e-016  1.500000e+000 -3.927530e+001
      vertex -2.755364e-016  1.500000e+000 -3.627530e+001
      vertex -2.926355e-001  1.471178e+000 -3.627530e+001
    endloop
  endfacet
  facet normal  9.801710e-002 -9.951848e-001  0.000000e+000
    outer loop
      vertex -2.755364e-016  1.500000e+000 -3.927530e+001
      vertex -2.926355e-001  1.471178e+000 -3.627530e+001
      vertex -2.926355e-001  1.471178e+000 -3.927530e+001
    endloop
  endfacet
  facet normal  2.902847e-001 -9.569404e-001  0.000000e+000
    outer loop
      vertex -2.926355e-001  1.471178e+000 -3.927530e+001
      vertex -2.926355e-001  1.471178e+000 -3.627530e+001
      vertex -5.740252e-001  1.385819e+000 -3.627530e+001
    endloop
  endfacet
  facet normal  2.902847e-001 -9.569404e-001  0.000000e+000
    outer loop
      vertex -2.926355e-001  1.471178e+000 -3.927530e+001
      vertex -5.740252e-001  1.385819e+000 -3.627530e+001
      vertex -5.740252e-001  1.385819e+000 -3.927530e+001
    endloop
  endfacet
  facet normal  4.713968e-001 -8.819213e-001  0.000000e+000
    outer loop
      vertex -5.740252e-001  1.385819e+000 -3.927530e+001
      vertex -5.740252e-001  1.385819e+000 -3.627530e+001
      vertex -8.333554e-001  1.247204e+000 -3.627530e+001
    endloop
  endfacet
  facet normal  4.713968e-001 -8.819213e-001  0.000000e+000
    outer loop
      vertex -5.740252e-001  1.385819e+000 -3.927530e+001
      vertex -8.333554e-001  1.247204e+000 -3.627530e+001
      vertex -8.333554e-001  1.247204e+000 -3.927530e+001
    endloop
  endfacet
  facet normal  6.343935e-001 -7.730103e-001  0.000000e+000
    outer loop
      vertex -8.333554e-001  1.247204e+000 -3.927530e+001
      vertex -8.333554e-001  1.247204e+000 -3.627530e+001
      vertex -1.060660e+000  1.060660e+000 -3.627530e+001
    endloop
  endfacet
  facet normal  6.343935e-001 -7.730103e-001  0.000000e+000
    outer loop
      vertex -8.333554e-001  1.247204e+000 -3.927530e+001
      vertex -1.060660e+000  1.060660e+000 -3.627530e+001
      vertex -1.060660e+000  1.060660e+000 -3.927530e+001
    endloop
  endfacet
  facet normal  7.730103e-001 -6.343935e-001  0.000000e+000
    outer loop
      vertex -1.060660e+000  1.060660e+000 -3.927530e+001
      vertex -1.060660e+000  1.060660e+000 -3.627530e+001
      vertex -1.247204e+000  8.333554e-001 -3.627530e+001
    endloop
  endfacet
  facet normal  7.730103e-001 -6.343935e-001  0.000000e+000
    outer loop
      vertex -1.060660e+000  1.060660e+000 -3.927530e+001
      vertex -1.247204e+000  8.333554e-001 -3.627530e+001
      vertex -1.247204e+000  8.333554e-001 -3.927530e+001
    endloop
  endfacet
  facet normal  8.819213e-001 -4.713968e-001  0.000000e+000
    outer loop
      vertex -1.247204e+000  8.333554e-001 -3.927530e+001
      vertex -1.247204e+000  8.333554e-001 -3.627530e+001
      vertex -1.385819e+000  5.740252e-001 -3.627530e+001
    endloop
  endfacet
  facet normal  8.819213e-001 -4.713968e-001  0.000000e+000
    outer loop
      vertex -1.247204e+000  8.333554e-001 -3.927530e+001
      vertex -1.385819e+000  5.740252e-001 -3.627530e+001
      vertex -1.385819e+000  5.740252e-001 -3.927530e+001
    endloop
  endfacet
  facet normal  9.569404e-001 -2.902847e-001  0.000000e+000
    outer loop
      vertex -1.385819e+000  5.740252e-001 -3.927530e+001
      vertex -1.385819e+000  5.740252e-001 -3.627530e+001
      vertex -1.471178e+000  2.926355e-001 -3.627530e+001
    endloop
  endfacet
  facet normal  9.569404e-001 -2.902847e-001  0.000000e+000
    outer loop
      vertex -1.385819e+000  5.740252e-001 -3.927530e+001
      vertex -1.471178e+000  2.926355e-001 -3.627530e+001
      vertex -1.471178e+000  2.926355e-001 -3.927530e+001
    endloop
  endfacet
  facet normal  9.951848e-001 -9.801710e-002  0.000000e+000
    outer loop
      vertex -1.471178e+000  2.926355e-001 -3.927530e+001
      vertex -1.471178e+000  2.926355e-001 -3.627530e+001
      vertex -1.500000e+000 -1.836910e-016 -3.627530e+001
    endloop
  endfacet
  facet normal  9.951848e-001 -9.801710e-002  0.000000e+000
    outer loop
      vertex -1.471178e+000  2.926355e-001 -3.927530e+001
      vertex -1.500000e+000 -1.836910e-016 -3.627530e+001
      vertex -1.500000e+000 -1.836910e-016 -3.927530e+001
    endloop
  endfacet
  facet normal  9.801710e-002  9.951848e-001  -0.000000e+000
    outer loop
      vertex  9.184548e-017 -1.500000e+000 -3.627530e+001
      vertex -2.926355e-001 -1.471178e+000 -3.927530e+001
      vertex -2.926355e-001 -1.471178e+000 -3.627530e+001
    endloop
  endfacet
  facet normal  2.902847e-001  9.569404e-001  0.000000e+000
    outer loop
      vertex -2.926355e-001 -1.471178e+000 -3.627530e+001
      vertex -2.926355e-001 -1.471178e+000 -3.927530e+001
      vertex -5.740252e-001 -1.385819e+000 -3.927530e+001
    endloop
  endfacet
  facet normal  2.902847e-001  9.569404e-001  -0.000000e+000
    outer loop
      vertex -2.926355e-001 -1.471178e+000 -3.627530e+001
      vertex -5.740252e-001 -1.385819e+000 -3.927530e+001
      vertex -5.740252e-001 -1.385819e+000 -3.627530e+001
    endloop
  endfacet
  facet normal  4.713968e-001  8.819213e-001  0.000000e+000
    outer loop
      vertex -5.740252e-001 -1.385819e+000 -3.627530e+001
      vertex -5.740252e-001 -1.385819e+000 -3.927530e+001
      vertex -8.333554e-001 -1.247204e+000 -3.927530e+001
    endloop
  endfacet
  facet normal  4.713968e-001  8.819213e-001  -0.000000e+000
    outer loop
      vertex -5.740252e-001 -1.385819e+000 -3.627530e+001
      vertex -8.333554e-001 -1.247204e+000 -3.927530e+001
      vertex -8.333554e-001 -1.247204e+000 -3.627530e+001
    endloop
  endfacet
  facet normal  6.343935e-001  7.730103e-001  0.000000e+000
    outer loop
      vertex -8.333554e-001 -1.247204e+000 -3.627530e+001
      vertex -8.333554e-001 -1.247204e+000 -3.927530e+001
      vertex -1.060660e+000 -1.060660e+000 -3.927530e+001
    endloop
  endfacet
  facet normal  6.343935e-001  7.730103e-001  -0.000000e+000
    outer loop
      vertex -8.333554e-001 -1.247204e+000 -3.627530e+001
      vertex -1.060660e+000 -1.060660e+000 -3.927530e+001
      vertex -1.060660e+000 -1.060660e+000 -3.627530e+001
    endloop
  endfacet
  facet normal  7.730103e-001  6.343935e-001  0.000000e+000
    outer loop
      vertex -1.060660e+000 -1.060660e+000 -3.627530e+001
      vertex -1.060660e+000 -1.060660e+000 -3.927530e+001
      vertex -1.247204e+000 -8.333554e-001 -3.927530e+001
    endloop
  endfacet
  facet normal  7.730103e-001  6.343935e-001  -0.000000e+000
    outer loop
      vertex -1.060660e+000 -1.060660e+000 -3.627530e+001
      vertex -1.247204e+000 -8.333554e-001 -3.927530e+001
      vertex -1.247204e+000 -8.333554e-001 -3.627530e+001
    endloop
  endfacet
  facet normal  8.819213e-001  4.713968e-001  0.000000e+000
    outer loop
      vertex -1.247204e+000 -8.333554e-001 -3.627530e+001
      vertex -1.247204e+000 -8.333554e-001 -3.927530e+001
      vertex -1.385819e+000 -5.740252e-001 -3.927530e+001
    endloop
  endfacet
  facet normal  8.819213e-001  4.713968e-001  -0.000000e+000
    outer loop
      vertex -1.247204e+000 -8.333554e-001 -3.627530e+001
      vertex -1.385819e+000 -5.740252e-001 -3.927530e+001
      vertex -1.385819e+000 -5.740252e-001 -3.627530e+001
    endloop
  endfacet
  facet normal  9.569404e-001  2.902847e-001  0.000000e+000
    outer loop
      vertex -1.385819e+000 -5.740252e-001 -3.627530e+001
      vertex -1.385819e+000 -5.740252e-001 -3.927530e+001
      vertex -1.471178e+000 -2.926355e-001 -3.927530e+001
    endloop
  endfacet
  facet normal  9.569404e-001  2.902847e-001  -0.000000e+000
    outer loop
      vertex -1.385819e+000 -5.740252e-001 -3.627530e+001
      vertex -1.471178e+000 -2.926355e-001 -3.927530e+001
      vertex -1.471178e+000 -2.926355e-001 -3.627530e+001
    endloop
  endfacet
  facet normal  9.951848e-001  9.801710e-002  0.000000e+000
    outer loop
      vertex -1.471178e+000 -2.926355e-001 -3.627530e+001
      vertex -1.471178e+000 -2.926355e-001 -3.927530e+001
      vertex -1.500000e+000 -1.836910e-016 -3.927530e+001
    endloop
  endfacet
  facet normal  9.951848e-001  9.801710e-002  -0.000000e+000
    outer loop
      vertex -1.471178e+000 -2.926355e-001 -3.627530e+001
      vertex -1.500000e+000 -1.836910e-016 -3.927530e+001
      vertex -1.500000e+000 -1.836910e-016 -3.627530e+001
    endloop
  endfacet
  facet normal  9.801710e-002  9.951848e-001  0.000000e+000
    outer loop
      vertex -2.926355e-001 -1.471178e+000 -3.927530e+001
      vertex  9.184548e-017 -1.500000e+000 -3.627530e+001
      vertex  9.184548e-017 -1.500000e+000 -3.927530e+001
    endloop
  endfacet
  facet normal -9.801710e-002  9.951848e-001  0.000000e+000
    outer loop
      vertex  9.184548e-017 -1.500000e+000 -3.927530e+001
      vertex  9.184548e-017 -1.500000e+000 -3.627530e+001
      vertex  2.926355e-001 -1.471178e+000 -3.627530e+001
    endloop
  endfacet
  facet normal -9.801710e-002  9.951848e-001  0.000000e+000
    outer loop
      vertex  9.184548e-017 -1.500000e+000 -3.927530e+001
      vertex  2.926355e-001 -1.471178e+000 -3.627530e+001
      vertex  2.926355e-001 -1.471178e+000 -3.927530e+001
    endloop
  endfacet
  facet normal -2.902847e-001  9.569404e-001  0.000000e+000
    outer loop
      vertex  2.926355e-001 -1.471178e+000 -3.927530e+001
      vertex  2.926355e-001 -1.471178e+000 -3.627530e+001
      vertex  5.740252e-001 -1.385819e+000 -3.627530e+001
    endloop
  endfacet
  facet normal -2.902847e-001  9.569404e-001  0.000000e+000
    outer loop
      vertex  2.926355e-001 -1.471178e+000 -3.927530e+001
      vertex  5.740252e-001 -1.385819e+000 -3.627530e+001
      vertex  5.740252e-001 -1.385819e+000 -3.927530e+001
    endloop
  endfacet
  facet normal -4.713968e-001  8.819213e-001  0.000000e+000
    outer loop
      vertex  5.740252e-001 -1.385819e+000 -3.927530e+001
      vertex  5.740252e-001 -1.385819e+000 -3.627530e+001
      vertex  8.333554e-001 -1.247204e+000 -3.627530e+001
    endloop
  endfacet
  facet normal -4.713968e-001  8.819213e-001  0.000000e+000
    outer loop
      vertex  5.740252e-001 -1.385819e+000 -3.927530e+001
      vertex  8.333554e-001 -1.247204e+000 -3.627530e+001
      vertex  8.333554e-001 -1.247204e+000 -3.927530e+001
    endloop
  endfacet
  facet normal -6.343935e-001  7.730103e-001  0.000000e+000
    outer loop
      vertex  8.333554e-001 -1.247204e+000 -3.927530e+001
      vertex  8.333554e-001 -1.247204e+000 -3.627530e+001
      vertex  1.060660e+000 -1.060660e+000 -3.627530e+001
    endloop
  endfacet
  facet normal -6.343935e-001  7.730103e-001  0.000000e+000
    outer loop
      vertex  8.333554e-001 -1.247204e+000 -3.927530e+001
      vertex  1.060660e+000 -1.060660e+000 -3.627530e+001
      vertex  1.060660e+000 -1.060660e+000 -3.927530e+001
    endloop
  endfacet
  facet normal -7.730103e-001  6.343935e-001  0.000000e+000
    outer loop
      vertex  1.060660e+000 -1.060660e+000 -3.927530e+001
      vertex  1.060660e+000 -1.060660e+000 -3.627530e+001
      vertex  1.247204e+000 -8.333554e-001 -3.627530e+001
    endloop
  endfacet
  facet normal -7.730103e-001  6.343935e-001  0.000000e+000
    outer loop
      vertex  1.060660e+000 -1.060660e+000 -3.927530e+001
      vertex  1.247204e+000 -8.333554e-001 -3.627530e+001
      vertex  1.247204e+000 -8.333554e-001 -3.927530e+001
    endloop
  endfacet
  facet normal -8.819213e-001  4.713968e-001  0.000000e+000
    outer loop
      vertex  1.247204e+000 -8.333554e-001 -3.927530e+001
      vertex  1.247204e+000 -8.333554e-001 -3.627530e+001
      vertex  1.385819e+000 -5.740252e-001 -3.627530e+001
    endloop
  endfacet
  facet normal -8.819213e-001  4.713968e-001  0.000000e+000
    outer loop
      vertex  1.247204e+000 -8.333554e-001 -3.927530e+001
      vertex  1.385819e+000 -5.740252e-001 -3.627530e+001
      vertex  1.385819e+000 -5.740252e-001 -3.927530e+001
    endloop
  endfacet
  facet normal -9.569404e-001  2.902847e-001  0.000000e+000
    outer loop
      vertex  1.385819e+000 -5.740252e-001 -3.927530e+001
      vertex  1.385819e+000 -5.740252e-001 -3.627530e+001
      vertex  1.471178e+000 -2.926355e-001 -3.627530e+001
    endloop
  endfacet
  facet normal -9.569404e-001  2.902847e-001  0.000000e+000
    outer loop
      vertex  1.385819e+000 -5.740252e-001 -3.927530e+001
      vertex  1.471178e+000 -2.926355e-001 -3.627530e+001
      vertex  1.471178e+000 -2.926355e-001 -3.927530e+001
    endloop
  endfacet
  facet normal -9.951848e-001  9.801710e-002  0.000000e+000
    outer loop
      vertex  1.471178e+000 -2.926355e-001 -3.927530e+001
      vertex  1.471178e+000 -2.926355e-001 -3.627530e+001
      vertex  1.500000e+000  0.000000e+000 -3.627530e+001
    endloop
  endfacet
  facet normal -9.951848e-001  9.801710e-002  0.000000e+000
    outer loop
      vertex  1.471178e+000 -2.926355e-001 -3.927530e+001
      vertex  1.500000e+000  0.000000e+000 -3.627530e+001
      vertex  1.500000e+000  0.000000e+000 -3.927530e+001
    endloop
  endfacet
  facet normal  -0.000000e+000  0.000000e+000 -1.000000e+000
    outer loop
      vertex -2.926355e-001 -1.471178e+000 -3.627530e+001
      vertex  2.926355e-001 -1.471178e+000 -3.627530e+001
      vertex  9.184548e-017 -1.500000e+000 -3.627530e+001
    endloop
  endfacet
  facet normal  0.000000e+000  0.000000e+000 -1.000000e+000
    outer loop
      vertex  2.926355e-001 -1.471178e+000 -3.627530e+001
      vertex -2.926355e-001 -1.471178e+000 -3.627530e+001
      vertex  5.740252e-001 -1.385819e+000 -3.627530e+001
    endloop
  endfacet
  facet normal  -0.000000e+000  0.000000e+000 -1.000000e+000
    outer loop
      vertex  5.740252e-001 -1.385819e+000 -3.627530e+001
      vertex -2.926355e-001 -1.471178e+000 -3.627530e+001
      vertex -5.740252e-001 -1.385819e+000 -3.627530e+001
    endloop
  endfacet
  facet normal  0.000000e+000  0.000000e+000 -1.000000e+000
    outer loop
      vertex  5.740252e-001 -1.385819e+000 -3.627530e+001
      vertex -5.740252e-001 -1.385819e+000 -3.627530e+001
      vertex  8.333554e-001 -1.247204e+000 -3.627530e+001
    endloop
  endfacet
  facet normal  -0.000000e+000  0.000000e+000 -1.000000e+000
    outer loop
      vertex  8.333554e-001 -1.247204e+000 -3.627530e+001
      vertex -5.740252e-001 -1.385819e+000 -3.627530e+001
      vertex -8.333554e-001 -1.247204e+000 -3.627530e+001
    endloop
  endfacet
  facet normal  0.000000e+000  0.000000e+000 -1.000000e+000
    outer loop
      vertex  8.333554e-001 -1.247204e+000 -3.627530e+001
      vertex -8.333554e-001 -1.247204e+000 -3.627530e+001
      vertex  1.060660e+000 -1.060660e+000 -3.627530e+001
    endloop
  endfacet
  facet normal  -0.000000e+000  0.000000e+000 -9.999999e-001
    outer loop
      vertex  1.060660e+000 -1.060660e+000 -3.627530e+001
      vertex -8.333554e-001 -1.247204e+000 -3.627530e+001
      vertex -1.060660e+000 -1.060660e+000 -3.627530e+001
    endloop
  endfacet
  facet normal  0.000000e+000  0.000000e+000 -1.000000e+000
    outer loop
      vertex  1.060660e+000 -1.060660e+000 -3.627530e+001
      vertex -1.060660e+000 -1.060660e+000 -3.627530e+001
      vertex  1.247204e+000 -8.333554e-001 -3.627530e+001
    endloop
  endfacet
  facet normal  -0.000000e+000  0.000000e+000 -1.000000e+000
    outer loop
      vertex  1.247204e+000 -8.333554e-001 -3.627530e+001
      vertex -1.060660e+000 -1.060660e+000 -3.627530e+001
      vertex -1.247204e+000 -8.333554e-001 -3.627530e+001
    endloop
  endfacet
  facet normal  0.000000e+000  0.000000e+000 -1.000000e+000
    outer loop
      vertex  1.247204e+000 -8.333554e-001 -3.627530e+001
      vertex -1.247204e+000 -8.333554e-001 -3.627530e+001
      vertex  1.385819e+000 -5.740252e-001 -3.627530e+001
    endloop
  endfacet
  facet normal  -0.000000e+000  0.000000e+000 -9.999999e-001
    outer loop
      vertex  1.385819e+000 -5.740252e-001 -3.627530e+001
      vertex -1.247204e+000 -8.333554e-001 -3.627530e+001
      vertex -1.385819e+000 -5.740252e-001 -3.627530e+001
    endloop
  endfacet
  facet normal  0.000000e+000  0.000000e+000 -1.000000e+000
    outer loop
      vertex  1.385819e+000 -5.740252e-001 -3.627530e+001
      vertex -1.385819e+000 -5.740252e-001 -3.627530e+001
      vertex  1.471178e+000 -2.926355e-001 -3.627530e+001
    endloop
  endfacet
  facet normal  -0.000000e+000  0.000000e+000 -9.999999e-001
    outer loop
      vertex  1.471178e+000 -2.926355e-001 -3.627530e+001
      vertex -1.385819e+000 -5.740252e-001 -3.627530e+001
      vertex -1.471178e+000 -2.926355e-001 -3.627530e+001
    endloop
  endfacet
  facet normal  0.000000e+000  0.000000e+000 -1.000000e+000
    outer loop
      vertex  1.471178e+000 -2.926355e-001 -3.627530e+001
      vertex -1.471178e+000 -2.926355e-001 -3.627530e+001
      vertex  1.500000e+000  0.000000e+000 -3.627530e+001
    endloop
  endfacet
  facet normal  0.000000e+000  0.000000e+000 -1.000000e+000
    outer loop
      vertex  1.500000e+000  0.000000e+000 -3.627530e+001
      vertex -1.471178e+000 -2.926355e-001 -3.627530e+001
      vertex -1.500000e+000 -1.836910e-016 -3.627530e+001
    endloop
  endfacet
  facet normal  0.000000e+000  0.000000e+000 -1.000000e+000
    outer loop
      vertex  1.500000e+000  0.000000e+000 -3.627530e+001
      vertex -1.500000e+000 -1.836910e-016 -3.627530e+001
      vertex  1.471178e+000  2.926355e-001 -3.627530e+001
    endloop
  endfacet
  facet normal  -0.000000e+000  0.000000e+000 -1.000000e+000
    outer loop
      vertex  1.471178e+000  2.926355e-001 -3.627530e+001
      vertex -1.500000e+000 -1.836910e-016 -3.627530e+001
      vertex -1.471178e+000  2.926355e-001 -3.627530e+001
    endloop
  endfacet
  facet normal  0.000000e+000  0.000000e+000 -9.999999e-001
    outer loop
      vertex  1.471178e+000  2.926355e-001 -3.627530e+001
      vertex -1.471178e+000  2.926355e-001 -3.627530e+001
      vertex  1.385819e+000  5.740252e-001 -3.627530e+001
    endloop
  endfacet
  facet normal  -0.000000e+000  0.000000e+000 -1.000000e+000
    outer loop
      vertex  1.385819e+000  5.740252e-001 -3.627530e+001
      vertex -1.471178e+000  2.926355e-001 -3.627530e+001
      vertex -1.385819e+000  5.740252e-001 -3.627530e+001
    endloop
  endfacet
  facet normal  0.000000e+000  0.000000e+000 -9.999999e-001
    outer loop
      vertex  1.385819e+000  5.740252e-001 -3.627530e+001
      vertex -1.385819e+000  5.740252e-001 -3.627530e+001
      vertex  1.247204e+000  8.333554e-001 -3.627530e+001
    endloop
  endfacet
  facet normal  -0.000000e+000  0.000000e+000 -1.000000e+000
    outer loop
      vertex  1.247204e+000  8.333554e-001 -3.627530e+001
      vertex -1.385819e+000  5.740252e-001 -3.627530e+001
      vertex -1.247204e+000  8.333554e-001 -3.627530e+001
    endloop
  endfacet
  facet normal  0.000000e+000  0.000000e+000 -1.000000e+000
    outer loop
      vertex  1.247204e+000  8.333554e-001 -3.627530e+001
      vertex -1.247204e+000  8.333554e-001 -3.627530e+001
      vertex  1.060660e+000  1.060660e+000 -3.627530e+001
    endloop
  endfacet
  facet normal  -0.000000e+000  0.000000e+000 -1.000000e+000
    outer loop
      vertex  1.060660e+000  1.060660e+000 -3.627530e+001
      vertex -1.247204e+000  8.333554e-001 -3.627530e+001
      vertex -1.060660e+000  1.060660e+000 -3.627530e+001
    endloop
  endfacet
  facet normal  0.000000e+000  0.000000e+000 -9.999999e-001
    outer loop
      vertex  1.060660e+000  1.060660e+000 -3.627530e+001
      vertex -1.060660e+000  1.060660e+000 -3.627530e+001
      vertex  8.333554e-001  1.247204e+000 -3.627530e+001
    endloop
  endfacet
  facet normal  -0.000000e+000  0.000000e+000 -1.000000e+000
    outer loop
      vertex  8.333554e-001  1.247204e+000 -3.627530e+001
      vertex -1.060660e+000  1.060660e+000 -3.627530e+001
      vertex -8.333554e-001  1.247204e+000 -3.627530e+001
    endloop
  endfacet
  facet normal  0.000000e+000  0.000000e+000 -1.000000e+000
    outer loop
      vertex  8.333554e-001  1.247204e+000 -3.627530e+001
      vertex -8.333554e-001  1.247204e+000 -3.627530e+001
      vertex  5.740252e-001  1.385819e+000 -3.627530e+001
    endloop
  endfacet
  facet normal  -0.000000e+000  0.000000e+000 -1.000000e+000
    outer loop
      vertex  5.740252e-001  1.385819e+000 -3.627530e+001
      vertex -8.333554e-001  1.247204e+000 -3.627530e+001
      vertex -5.740252e-001  1.385819e+000 -3.627530e+001
    endloop
  endfacet
  facet normal  0.000000e+000  0.000000e+000 -1.000000e+000
    outer loop
      vertex  5.740252e-001  1.385819e+000 -3.627530e+001
      vertex -5.740252e-001  1.385819e+000 -3.627530e+001
      vertex  2.926355e-001  1.471178e+000 -3.627530e+001
    endloop
  endfacet
  facet normal  -0.000000e+000  0.000000e+000 -1.000000e+000
    outer loop
      vertex  2.926355e-001  1.471178e+000 -3.627530e+001
      vertex -5.740252e-001  1.385819e+000 -3.627530e+001
      vertex -2.926355e-001  1.471178e+000 -3.627530e+001
    endloop
  endfacet
  facet normal  0.000000e+000  0.000000e+000 -1.000000e+000
    outer loop
      vertex  2.926355e-001  1.471178e+000 -3.627530e+001
      vertex -2.926355e-001  1.471178e+000 -3.627530e+001
      vertex -2.755364e-016  1.500000e+000 -3.627530e+001
    endloop
  endfacet
endsolid CATIA STL
